<svg width="294" height="59" viewBox="0 0 294 59" fill="none" xmlns="http://www.w3.org/2000/svg">
<path d="M68.6985 57.591C56.7415 42.8865 44.788 28.1863 32.831 13.4819C32.1971 12.7019 32.1652 11.5972 32.7504 10.7853L39.4436 1.48206C40.1352 0.519299 41.5529 0.476328 42.3023 1.39854L78.1569 45.5181C78.7873 46.2938 78.8192 47.3984 78.2375 48.2147C76.0107 51.3123 73.784 54.4098 71.5615 57.5039C70.8699 58.4667 69.448 58.5132 68.6985 57.591Z" fill="#5466ED"/>
<path d="M39.1509 57.591C27.1939 42.8865 15.2404 28.1863 3.28338 13.4819C2.6495 12.7019 2.6176 11.5972 3.20283 10.7853L9.896 1.48206C10.5876 0.519299 12.0053 0.476328 12.7547 1.39854L48.6093 45.5181C49.2397 46.2938 49.2716 47.3984 48.6899 48.2147C46.4631 51.3123 44.2364 54.4098 42.0139 57.5039C41.3223 58.4667 39.9004 58.5132 39.1509 57.591Z" fill="#5466ED"/>
<path fill-rule="evenodd" clip-rule="evenodd" d="M81.437 0.181061C86.9644 1.10697 91.4059 5.61058 92.1121 11.1638C92.6672 15.5481 91.3281 19.3424 88.0903 22.4074C86.0478 24.3424 83.9836 26.2559 81.9199 28.169C81.1767 28.858 80.4335 29.5469 79.6915 30.2367C79.5866 30.3356 79.4764 30.4282 79.3531 30.5319C79.2807 30.5928 79.2038 30.6575 79.1207 30.7295C79.0275 30.6417 78.9366 30.5558 78.8472 30.4714C78.6532 30.2884 78.4667 30.1124 78.2813 29.9384C77.3025 29.0087 76.3226 28.0801 75.3427 27.1515C73.6279 25.5266 71.913 23.9016 70.2045 22.2704C66.125 18.3767 65.0635 12.1715 67.5995 7.1464C70.1689 2.0594 75.7807 -0.764739 81.437 0.181061ZM79.0485 16.5468C81.3331 16.5468 83.1851 14.6947 83.1851 12.4101C83.1851 10.1255 81.3331 8.27342 79.0485 8.27342C76.7638 8.27342 74.9118 10.1255 74.9118 12.4101C74.9118 14.6947 76.7638 16.5468 79.0485 16.5468Z" fill="#5466ED"/>
<g clip-path="url(#clip0_2006_2)">
<path d="M133.534 23.6255C133.298 24.1679 133.134 24.5332 132.98 24.8985C130.115 31.7454 127.256 38.5923 124.363 45.428C124.16 45.9151 123.814 46.4465 123.386 46.7122C122.404 47.3266 121.575 46.928 121.109 45.7103C119.912 42.5996 118.749 39.4779 117.552 36.3672C115.829 31.8838 114.083 27.4114 112.366 22.928C111.603 20.9299 110.873 18.9207 110.159 16.9059C109.621 15.3948 110.516 14.1771 112.069 14.3764C112.464 14.4262 113.002 14.8247 113.145 15.1956C114.38 18.3893 115.516 21.6162 116.723 24.821C118.71 30.0793 120.735 35.321 122.783 40.6734C122.942 40.3635 123.095 40.1033 123.216 39.8266C126.12 32.9299 129.018 26.0387 131.91 19.1365C132.206 18.428 132.503 17.8579 133.447 17.8469C134.424 17.8413 134.857 18.3672 135.192 19.1476C138.112 26.0664 141.037 32.9852 143.963 39.8985C144.061 40.1365 144.171 40.369 144.352 40.7786C144.901 39.3229 145.401 38.0221 145.889 36.7159C147.815 31.5461 149.742 26.3819 151.668 21.2122C152.349 19.3801 153.018 17.548 153.705 15.7159C154.198 14.3985 154.917 13.9225 155.878 14.2491C156.893 14.5978 157.332 15.7214 156.866 16.9834C155.856 19.7066 154.802 22.4133 153.765 25.1255C151.46 31.1476 149.149 37.1642 146.838 43.1863C146.548 43.9446 146.251 44.703 145.966 45.4668C145.675 46.2362 145.329 46.9668 144.374 47C143.403 47.0332 143.051 46.297 142.739 45.5387C140.011 39.0184 137.278 32.4926 134.55 25.9723C134.248 25.2528 133.935 24.5387 133.545 23.6255H133.534Z" fill="#5466ED"/>
<path d="M286.662 35.2712C288.44 37.4908 290.213 39.7103 291.986 41.9299C292.551 42.6384 293.138 43.3358 293.665 44.0775C294.093 44.6753 294.104 45.3395 293.736 45.9871C293.38 46.6125 292.782 46.8063 292.161 46.6236C291.755 46.5018 291.349 46.1753 291.075 45.8376C288.424 42.5553 285.795 39.2509 283.182 35.9354C282.842 35.5037 282.502 35.3155 281.942 35.321C279.467 35.3542 276.986 35.3376 274.39 35.3376C274.39 35.7085 274.39 36.024 274.39 36.3339C274.39 39.1845 274.428 42.0406 274.351 44.8911C274.335 45.4114 273.94 46.0314 273.534 46.3967C273.1 46.7841 272.43 46.7952 271.953 46.3192C271.695 46.0646 271.47 45.7269 271.371 45.3838C271.256 45.0018 271.278 44.5701 271.278 44.1605C271.278 35.3653 271.278 26.5701 271.278 17.7749C271.278 15.0793 271.492 14.8635 274.159 14.8635C277.255 14.8635 280.35 14.797 283.44 14.8911C286.025 14.9686 288.501 15.5443 290.559 17.2878C292.743 19.1421 293.907 21.5277 293.956 24.3782C293.983 26.0111 293.967 27.7103 293.544 29.2601C292.738 32.2435 290.564 33.9982 287.65 34.8395C287.37 34.9225 287.09 35 286.816 35.0886C286.794 35.0941 286.777 35.1328 286.673 35.2657L286.662 35.2712ZM274.428 32.1882C276.486 32.1882 278.44 32.2103 280.389 32.1827C282.046 32.155 283.731 32.2159 285.361 31.9613C287.946 31.5627 289.966 30.2509 290.679 27.5277C290.883 26.7528 290.789 25.9004 290.811 25.0812C290.872 23.3155 290.207 21.8266 289.033 20.5535C287.513 18.9041 285.537 18.2841 283.396 18.2232C280.597 18.1458 277.793 18.1956 274.993 18.2011C274.801 18.2011 274.615 18.2565 274.423 18.2897V32.1882H274.428Z" fill="#5466ED"/>
<path d="M246.712 18.2232V29.1439H247.721C252.568 29.1439 257.414 29.1439 262.26 29.1439C263.512 29.1439 264.044 29.6365 264.028 30.7712C264.017 31.8616 263.501 32.321 262.26 32.321C257.441 32.321 252.628 32.321 247.809 32.321C247.491 32.321 247.167 32.3432 246.849 32.3542C246.805 32.4096 246.755 32.4649 246.712 32.5203V43.0092H247.804C252.677 43.0092 257.551 43.0092 262.425 43.0092C262.831 43.0092 263.243 43.0092 263.649 43.0535C264.56 43.1697 264.933 43.7454 264.889 44.9244C264.856 45.7989 264.417 46.2804 263.517 46.2804C257.535 46.297 251.552 46.297 245.564 46.2804C244.56 46.2804 243.858 45.6439 243.682 44.6531C243.611 44.2491 243.589 43.8339 243.589 43.4244C243.589 34.8893 243.589 26.3598 243.589 17.8247C243.589 17.3819 243.605 16.9391 243.671 16.5074C243.819 15.5055 244.516 14.8469 245.515 14.8469C251.53 14.8303 257.54 14.8358 263.556 14.8469C264.351 14.8469 264.829 15.3561 264.9 16.1697C264.983 17.0996 264.522 17.8413 263.748 17.9852C263.462 18.0351 263.166 18.0184 262.875 18.0184C257.535 18.0295 252.195 18.0406 246.854 18.0517C246.81 18.107 246.761 18.1568 246.717 18.2122L246.712 18.2232Z" fill="#5466ED"/>
<path d="M158.211 46.6568C156.778 46.6568 156.114 45.5664 156.701 44.2103C158.282 40.5517 159.895 36.9041 161.493 33.2454C164.028 27.4391 166.558 21.6328 169.094 15.8266C169.198 15.583 169.319 15.345 169.412 15.1015C169.692 14.4096 170.175 13.9889 170.938 14C171.679 14.0111 172.091 14.4926 172.365 15.1236C173.403 17.4871 174.434 19.8506 175.466 22.2196C178.671 29.5535 181.877 36.893 185.087 44.2269C185.367 44.8579 185.565 45.5443 185.011 46.0203C184.588 46.3745 183.896 46.6956 183.408 46.6015C182.925 46.5074 182.376 45.9539 182.146 45.4613C181.114 43.2583 180.17 41.0111 179.231 38.7638C179.012 38.238 178.765 38.0055 178.156 38.0055C173.309 38.0332 168.468 38.0332 163.622 38.0055C163.068 38.0055 162.799 38.1882 162.585 38.6919C161.597 41.0111 160.571 43.3137 159.555 45.6218C159.281 46.2417 158.962 46.8007 158.205 46.6513L158.211 46.6568ZM177.557 34.8229C175.34 29.6531 173.161 24.572 170.911 19.3247C168.639 24.583 166.449 29.6531 164.22 34.8229H177.563H177.557Z" fill="#5466ED"/>
<path d="M225.098 40.679C226.201 38.0941 227.228 35.703 228.243 33.3063C230.718 27.4779 233.188 21.6439 235.658 15.81C236.174 14.5922 236.854 14.2048 237.782 14.5756C238.726 14.9576 239.094 15.9926 238.622 17.1052C234.604 26.548 230.576 35.9908 226.558 45.4336C226.262 46.1255 225.85 46.7011 225.043 46.7011C224.176 46.7011 223.819 46.0369 223.512 45.3339C219.467 35.9963 215.411 26.6642 211.366 17.3266C211.218 16.9834 211.026 16.6458 210.954 16.2804C210.834 15.6605 211.443 14.714 212.019 14.5314C212.952 14.2325 213.743 14.5314 214.127 15.4059C215.241 17.9299 216.328 20.4594 217.42 22.9889C219.829 28.5627 222.233 34.131 224.643 39.7048C224.758 39.9705 224.895 40.2306 225.104 40.6734L225.098 40.679Z" fill="#5466ED"/>
<path d="M196.679 30.4391C198.803 27.1015 200.867 23.8635 202.93 20.6255C204.11 18.7712 205.296 16.917 206.481 15.0627C206.849 14.4871 207.387 14.1218 208.029 14.3598C208.468 14.5203 209.061 14.941 209.121 15.3173C209.22 15.9262 209.105 16.7011 208.786 17.2214C207.134 19.9225 205.395 22.5683 203.682 25.2306C202.036 27.7934 200.367 30.3506 198.748 32.9354C198.501 33.3284 198.342 33.8487 198.336 34.3137C198.304 37.6347 198.326 40.9613 198.309 44.2823C198.309 44.714 198.265 45.179 198.1 45.572C197.804 46.2638 197.211 46.5683 196.459 46.4631C195.729 46.3635 195.329 45.8875 195.197 45.19C195.137 44.8745 195.159 44.548 195.159 44.2214C195.159 40.9557 195.175 37.69 195.137 34.4244C195.131 33.9317 194.972 33.3782 194.709 32.9631C191.355 27.7657 187.969 22.5849 184.599 17.3985C184.242 16.8506 183.737 16.3137 184.039 15.5609C184.303 14.8911 184.758 14.4207 185.505 14.3321C186.234 14.2491 186.712 14.631 187.085 15.2177C189.27 18.6937 191.459 22.1642 193.649 25.6347C194.632 27.1956 195.625 28.7565 196.679 30.428V30.4391Z" fill="#5466ED"/>
</g>
<defs>
<clipPath id="clip0_2006_2">
<rect width="184" height="33" fill="white" transform="translate(110 14)"/>
</clipPath>
</defs>
</svg>
