<svg width="27" height="26" viewBox="0 0 27 26" fill="none" xmlns="http://www.w3.org/2000/svg">
<path d="M26.2927 21.476C26.0239 21.3629 25.7145 21.4891 25.6015 21.7578C24.8598 23.5206 23.1449 24.6596 21.2326 24.6596C18.9382 24.6596 17.0198 23.02 16.5868 20.851C16.5871 20.8426 16.588 20.8345 16.588 20.826C16.588 20.5935 16.5575 20.3681 16.5008 20.1531C16.4971 20.0765 16.4951 19.9995 16.4951 19.9221C16.4951 17.9405 17.7181 16.2396 19.4488 15.5336L20.7245 20.0651C20.7901 20.2979 21.0018 20.4501 21.2324 20.4501C21.2797 20.4501 21.3278 20.4436 21.3757 20.4302C21.6563 20.3512 21.8197 20.0596 21.7407 19.779L20.465 15.2471C20.7149 15.2062 20.9713 15.1846 21.2326 15.1846C23.1176 15.1846 24.8229 16.3012 25.577 18.0292C25.6936 18.2964 26.0046 18.4185 26.2719 18.3019C26.5391 18.1853 26.6612 17.8741 26.5446 17.6069C25.6225 15.4941 23.5375 14.1289 21.2326 14.1289C20.8723 14.1289 20.5197 14.1623 20.1773 14.2255L20.1321 14.0648C19.9794 13.5224 19.8654 12.9704 19.7903 12.4133C19.7903 12.4131 19.7902 12.4129 19.7902 12.4127C19.7467 12.0901 19.7161 11.7659 19.6989 11.4407C19.7469 11.6827 19.9605 11.8652 20.2166 11.8652H20.9378C21.9363 11.8652 22.7487 11.0529 22.7487 10.0544C22.7487 9.05591 21.9363 8.24356 20.9378 8.24356H19.3544L15.3062 4.6563C15.5162 4.71727 15.7379 4.75063 15.9673 4.75063C17.277 4.75063 18.3426 3.68506 18.3426 2.37531C18.3426 1.06557 17.277 0 15.9673 0C14.6575 0 13.592 1.06557 13.592 2.37531C13.592 2.82161 13.7159 3.23935 13.9308 3.59644C13.5531 3.42441 13.1399 3.3332 12.7125 3.3332C11.9267 3.3332 11.1879 3.63925 10.6323 4.19486L6.31016 8.51693C6.30899 8.51809 6.3081 8.51946 6.30694 8.52062C6.29305 8.53477 6.27986 8.54981 6.26745 8.5657C6.26603 8.56755 6.26444 8.56924 6.26307 8.57109C6.26254 8.57177 6.26196 8.57235 6.26149 8.57304C5.98706 8.93805 5.83034 9.37526 5.79714 9.84684H4.75976C4.46823 9.84684 4.23191 10.0832 4.23191 10.3747V11.0206C4.23191 12.1197 5.12609 13.0139 6.22522 13.0139H6.85104L6.58036 14.1827C6.32282 14.1476 6.06011 14.129 5.79313 14.129C2.59881 14.1288 0 16.7277 0 19.922C0 21.8777 0.974249 23.61 2.46278 24.6595H0.527848C0.236317 24.6595 0 24.8959 0 25.1874C0 25.4788 0.236317 25.7152 0.527848 25.7152H5.79318C8.65728 25.7152 11.0422 23.6258 11.5049 20.8914C11.5371 21.152 11.7589 21.3538 12.0282 21.3538H15.6186C15.9645 22.7093 16.7897 23.8751 17.9022 24.6595H14.551C14.2595 24.6595 14.0232 24.8959 14.0232 25.1874C14.0232 25.4788 14.2595 25.7152 14.551 25.7152H21.2327C23.5709 25.7152 25.6677 24.3225 26.5746 22.1672C26.6876 21.8985 26.5614 21.5891 26.2927 21.476ZM19.682 9.2992H20.9378C21.3541 9.29915 21.6929 9.63787 21.6929 10.0543C21.6929 10.4707 21.3542 10.8094 20.9378 10.8094H20.2166C19.9435 10.8094 19.7188 11.0168 19.6915 11.2827C19.6852 11.1235 19.682 10.9643 19.682 10.8049V9.2992ZM18.6775 11.9581H13.3872C13.3026 11.8572 13.2139 11.7592 13.12 11.6653L11.4564 10.0017L13.6481 7.80998L18.6415 11.427C18.6499 11.6043 18.6618 11.7815 18.6775 11.9581ZM17.8985 13.0138L14.6641 15.9437L14.3559 14.0287C14.3553 14.025 14.3547 14.0213 14.354 14.0176C14.2902 13.6687 14.186 13.3326 14.045 13.0138H17.8985ZM15.9673 1.05559C16.6949 1.05559 17.2869 1.64757 17.2869 2.37521C17.2869 3.10285 16.6949 3.69483 15.9673 3.69483C15.2396 3.69483 14.6477 3.10285 14.6477 2.37521C14.6477 1.64757 15.2396 1.05559 15.9673 1.05559ZM11.3788 4.94129C11.735 4.58499 12.2086 4.38879 12.7125 4.38879C13.2163 4.38879 13.6899 4.58499 14.0463 4.94134L18.6264 9.00888V10.1125L13.9028 6.691C13.8099 6.6237 13.7013 6.59065 13.5933 6.59065C13.4573 6.59065 13.3221 6.64302 13.2199 6.74526L10.5541 9.41116L8.79252 8.9248L7.6976 8.6225L11.3788 4.94129ZM6.22522 11.9581C5.70825 11.9581 5.28761 11.5375 5.28761 11.0205V10.9024H5.92118C6.03853 11.2915 6.22966 11.6517 6.47674 11.9581H6.22522ZM5.79318 24.6595C3.18092 24.6595 1.0557 22.5343 1.0557 19.922C1.0557 17.3097 3.18092 15.1845 5.79318 15.1845C5.97846 15.1845 6.1612 15.1956 6.34103 15.2164L5.27895 19.803C5.24264 19.9598 5.27985 20.1246 5.37998 20.2506C5.48011 20.3766 5.63224 20.4499 5.79318 20.4499H10.5011C10.2378 22.8146 8.22703 24.6595 5.79318 24.6595ZM6.45721 19.3942L7.36949 15.4545C9.04979 16.0492 10.2975 17.5662 10.5011 19.3942H6.45721ZM7.60898 14.4206L7.93302 13.0211L10.4629 14.482L11.2937 18.1035C10.7186 16.3686 9.34428 14.9948 7.60898 14.4206ZM11.4405 14.0218C11.4077 13.8789 11.3169 13.7561 11.1899 13.6827L7.77277 11.7095C7.33677 11.4577 6.99652 10.9614 6.88488 10.4141C6.81779 10.0853 6.83774 9.77395 6.93956 9.50839L8.47676 9.93278L10.4352 10.4734L12.3735 12.4118C12.8635 12.9018 13.1889 13.5207 13.3145 14.2021L13.9559 18.1869C13.9535 18.1869 13.9512 18.1868 13.9489 18.1868H12.3959V18.1867L11.4405 14.0218ZM12.5561 20.2981V19.2424H13.9488C14.637 19.2424 15.224 19.6837 15.4419 20.2981H12.5561ZM15.5611 18.7386C15.4081 18.6202 15.242 18.5182 15.0651 18.4352L14.8642 17.1869L18.9116 13.5206C18.9707 13.7992 19.0386 14.0761 19.116 14.3508L19.1613 14.512C17.3446 15.2099 15.9657 16.7975 15.5611 18.7386Z" fill="#5466ED"/>
</svg>
