<svg width="23" height="25" viewBox="0 0 23 25" fill="none" xmlns="http://www.w3.org/2000/svg">
<path d="M20.9365 2.21121H17.0022V1.23337C17.0022 0.553784 16.4487 0.000854492 15.7683 0.000854492C15.0887 0.000854492 14.5358 0.553784 14.5358 1.23337V2.21125H8.46367V1.23337C8.46367 0.553784 7.91011 0.000854492 7.22974 0.000854492C6.5501 0.000854492 5.99722 0.553784 5.99722 1.23337V2.21125H2.06284C0.965772 2.21125 0.0732422 3.10378 0.0732422 4.2009V23.0095C0.0732422 24.1066 0.965772 24.9991 2.06284 24.9991H12.8971H12.8974H12.898H20.9365C22.0336 24.9991 22.9262 24.1066 22.9262 23.0095V4.2009C22.9262 3.10378 22.0336 2.21121 20.9365 2.21121ZM15.2181 1.23337C15.2181 0.930005 15.4649 0.683179 15.7683 0.683179C16.0724 0.683179 16.3199 0.930005 16.3199 1.23337V3.87146C16.3199 4.17483 16.0725 4.42166 15.7683 4.42166C15.4649 4.42166 15.2181 4.17483 15.2181 3.87146V1.23337ZM6.67954 1.23337C6.67954 0.930005 6.92637 0.683179 7.22974 0.683179C7.53389 0.683179 7.78135 0.930005 7.78135 1.23337V3.87146C7.78135 4.17483 7.53394 4.42166 7.22974 4.42166C6.92637 4.42166 6.67954 4.17483 6.67954 3.87146V1.23337ZM2.06284 2.89358H5.99717V3.87146C5.99717 4.5511 6.55005 5.10403 7.22969 5.10403C7.91011 5.10403 8.46362 4.5511 8.46362 3.87146V2.89358H14.5356V3.87146C14.5356 4.5511 15.0885 5.10403 15.7682 5.10403C16.4486 5.10403 17.0021 4.5511 17.0021 3.87146V2.89358H20.9364C21.6572 2.89358 22.2437 3.48005 22.2437 4.20085V7.43342H0.755615V4.20085C0.755615 3.48005 1.34204 2.89358 2.06284 2.89358ZM0.755615 23.0095V8.1158H22.2438V18.5474C21.902 18.7136 21.526 18.8011 21.1455 18.8011C20.5618 18.8011 20.0099 18.6043 19.5497 18.232C19.4674 18.1656 19.3592 18.1409 19.2565 18.1653C19.1538 18.1896 19.0681 18.2601 19.0244 18.3563C17.8128 21.0253 15.6135 23.1395 12.8274 24.3168H2.06284C1.34204 24.3168 0.755615 23.7303 0.755615 23.0095ZM21.7242 19.4303C20.0944 21.6579 17.6985 23.2575 14.9766 23.9613C15.6882 23.5106 16.3525 22.9909 16.9637 22.4059C18.0028 21.4114 18.8443 20.2705 19.4694 19.0098C19.9745 19.3209 20.5464 19.4835 21.1455 19.4835C21.3401 19.4835 21.5339 19.4656 21.7242 19.4303ZM20.9365 24.3168H16.1574C18.5949 23.4727 20.7276 21.929 22.2438 19.8755V23.0095C22.2438 23.7303 21.6573 24.3168 20.9365 24.3168ZM5.32104 9.71584H3.05117C2.66689 9.71584 2.3543 10.0279 2.3543 10.4114V12.6813C2.3543 13.0656 2.66689 13.3781 3.05117 13.3781H5.32104C5.70454 13.3781 6.01655 13.0656 6.01655 12.6813V10.4114C6.01655 10.0279 5.70454 9.71584 5.32104 9.71584ZM5.33418 12.6813C5.33418 12.689 5.32686 12.6958 5.321 12.6958H3.05117C3.04438 12.6958 3.03662 12.6881 3.03662 12.6813V10.4114C3.03662 10.4055 3.04351 10.3982 3.05117 10.3982H5.32104C5.32783 10.3982 5.33423 10.4046 5.33423 10.4114V12.6813H5.33418ZM10.1959 9.71584H7.92598C7.54248 9.71584 7.23047 10.0279 7.23047 10.4114V12.6813C7.23047 13.0656 7.54248 13.3781 7.92598 13.3781H10.1959C10.5801 13.3781 10.8927 13.0656 10.8927 12.6813V10.4114C10.8927 10.0279 10.5801 9.71584 10.1959 9.71584ZM10.2104 12.6813C10.2104 12.6881 10.2027 12.6958 10.1959 12.6958H7.92598C7.92017 12.6958 7.91279 12.689 7.91279 12.6813V10.4114C7.91279 10.4046 7.91919 10.3982 7.92598 10.3982H10.1959C10.2036 10.3982 10.2104 10.4055 10.2104 10.4114V12.6813ZM12.8021 13.3782H15.0721C15.4556 13.3782 15.7676 13.0656 15.7676 12.6813V10.4114C15.7676 10.0279 15.4556 9.71589 15.0721 9.71589H12.8021C12.4187 9.71589 12.1066 10.0279 12.1066 10.4114V12.6813C12.1066 13.0656 12.4186 13.3782 12.8021 13.3782ZM12.789 10.4114C12.789 10.4046 12.7954 10.3982 12.8021 10.3982H15.0721C15.0789 10.3982 15.0853 10.4046 15.0853 10.4114V12.6813C15.0853 12.689 15.0779 12.6958 15.0721 12.6958H12.8021C12.7963 12.6958 12.789 12.689 12.789 12.6813V10.4114ZM17.6783 13.3782H19.9482C20.3317 13.3782 20.6437 13.0656 20.6437 12.6813V10.4114C20.6437 10.0279 20.3317 9.71589 19.9482 9.71589H17.6783C17.294 9.71589 16.9814 10.0279 16.9814 10.4114V12.6813C16.9814 13.0656 17.294 13.3782 17.6783 13.3782ZM17.6638 10.4114C17.6638 10.4055 17.6707 10.3982 17.6783 10.3982H19.9482C19.955 10.3982 19.9614 10.4046 19.9614 10.4114V12.6813C19.9614 12.689 19.9541 12.6958 19.9482 12.6958H17.6783C17.6716 12.6958 17.6638 12.6879 17.6638 12.6813V10.4114ZM5.32104 14.592H3.05117C2.66689 14.592 2.3543 14.904 2.3543 15.2875V17.5574C2.3543 17.9409 2.66689 18.253 3.05117 18.253H5.32104C5.70454 18.253 6.01655 17.9409 6.01655 17.5574V15.2876C6.01655 14.904 5.70454 14.592 5.32104 14.592ZM5.33418 17.5575C5.33418 17.5642 5.32778 17.5706 5.321 17.5706H3.05117C3.04351 17.5706 3.03662 17.5633 3.03662 17.5575V15.2876C3.03662 15.2818 3.04351 15.2744 3.05117 15.2744H5.32104C5.32783 15.2744 5.33423 15.2808 5.33423 15.2876V17.5575H5.33418ZM10.1959 14.592H7.92598C7.54248 14.592 7.23047 14.904 7.23047 15.2875V17.5574C7.23047 17.9409 7.54248 18.253 7.92598 18.253H10.1959C10.5801 18.253 10.8927 17.9409 10.8927 17.5574V15.2876C10.8927 14.904 10.5801 14.592 10.1959 14.592ZM10.2104 17.5575C10.2104 17.5633 10.2036 17.5706 10.1959 17.5706H7.92598C7.91919 17.5706 7.91279 17.5642 7.91279 17.5575V15.2876C7.91279 15.2808 7.91919 15.2744 7.92598 15.2744H10.1959C10.2036 15.2744 10.2104 15.2818 10.2104 15.2876V17.5575ZM15.0721 18.253C15.4556 18.253 15.7676 17.941 15.7676 17.5575V15.2876C15.7676 14.9041 15.4556 14.5921 15.0721 14.5921H12.8021C12.4187 14.5921 12.1066 14.9041 12.1066 15.2876V17.5575C12.1066 17.941 12.4187 18.253 12.8021 18.253H15.0721ZM12.789 17.5575V15.2876C12.789 15.2808 12.7954 15.2744 12.8021 15.2744H15.0721C15.0789 15.2744 15.0853 15.2808 15.0853 15.2876V17.5575C15.0853 17.5642 15.0789 17.5706 15.0721 17.5706H12.8021C12.7954 17.5706 12.789 17.5642 12.789 17.5575ZM5.32104 19.4669H3.05117C2.66689 19.4669 2.3543 19.7795 2.3543 20.1637V22.4337C2.3543 22.8172 2.66689 23.1292 3.05117 23.1292H5.32104C5.70454 23.1292 6.01655 22.8172 6.01655 22.4337V20.1637C6.01655 19.7795 5.70454 19.4669 5.32104 19.4669ZM5.33418 22.4337C5.33418 22.4405 5.32778 22.4469 5.321 22.4469H3.05117C3.04351 22.4469 3.03662 22.4395 3.03662 22.4337V20.1637C3.03662 20.157 3.04438 20.1492 3.05117 20.1492H5.32104C5.32686 20.1492 5.33423 20.156 5.33423 20.1637V22.4337H5.33418ZM10.1959 19.4669H7.92598C7.54248 19.4669 7.23047 19.7795 7.23047 20.1637V22.4337C7.23047 22.8172 7.54248 23.1292 7.92598 23.1292H10.1959C10.5801 23.1292 10.8927 22.8172 10.8927 22.4337V20.1637C10.8927 19.7795 10.5801 19.4669 10.1959 19.4669ZM10.2104 22.4337C10.2104 22.4395 10.2036 22.4469 10.1959 22.4469H7.92598C7.91919 22.4469 7.91279 22.4405 7.91279 22.4337V20.1637C7.91279 20.156 7.92012 20.1492 7.92598 20.1492H10.1959C10.2027 20.1492 10.2104 20.157 10.2104 20.1637V22.4337Z" fill="#5466ED"/>
</svg>
