<svg width="24" height="21" viewBox="0 0 24 21" fill="none" xmlns="http://www.w3.org/2000/svg">
<path d="M23.9663 11.6751C23.9663 11.675 23.9663 11.6749 23.9662 11.6748L19.4349 0.297084C19.3388 0.0553371 19.0647 -0.0626802 18.823 0.0334886C18.8228 0.0335475 18.8226 0.0336064 18.8225 0.0337241L0.439561 7.35362C0.364593 7.38601 0.299578 7.43772 0.251111 7.50344C0.0982299 7.58288 0.00164894 7.74012 0 7.91238V20.1617C0 20.4219 0.210947 20.6328 0.471127 20.6328H20.2585C20.5186 20.6328 20.7296 20.4219 20.7296 20.1617V13.4717L23.7033 12.2873C23.945 12.1909 24.0627 11.9168 23.9663 11.6751ZM19.7873 19.6905H0.942254V8.3835H19.7873V19.6905ZM7.86075 7.44361L15.7493 4.30025C16.4533 5.04027 17.4289 5.46087 18.4503 5.46487L19.237 7.44361H7.86075ZM20.7296 12.4597V7.91238C20.7296 7.6522 20.5186 7.44125 20.2585 7.44125H20.2509L19.2526 4.93391C19.2415 4.91301 19.2286 4.8931 19.214 4.87455C19.1634 4.64765 18.9533 4.49282 18.7216 4.51178C17.7713 4.59841 16.8415 4.19807 16.2515 3.44798C16.1047 3.26677 15.8466 3.22172 15.6471 3.34245C15.6247 3.3451 15.6025 3.34922 15.5806 3.3547L5.94986 7.18967C5.83332 7.23537 5.74009 7.326 5.69121 7.44125H2.76646L18.7339 1.08339L22.917 11.5872L20.7296 12.4597Z" fill="#5466ED"/>
<path d="M2.22115 16.51C3.13584 16.7804 3.8516 17.4953 4.12309 18.4096C4.18263 18.6092 4.36619 18.7459 4.57443 18.746C4.59887 18.7445 4.62313 18.7408 4.64698 18.7352C4.66812 18.7412 4.68974 18.7456 4.71153 18.7483H16.0186C16.038 18.7458 16.0572 18.7419 16.076 18.7366C16.3114 18.7938 16.5486 18.6495 16.6059 18.4141C16.6061 18.4132 16.6064 18.4124 16.6065 18.4115C16.8773 17.4962 17.5932 16.7803 18.5085 16.5095C18.7304 16.4417 18.8684 16.2205 18.8317 15.9913C18.838 15.9685 18.8425 15.9451 18.8453 15.9216V12.1526C18.8426 12.129 18.8379 12.1056 18.8312 12.0828C18.8681 11.8536 18.7301 11.6323 18.508 11.5646C17.5927 11.2939 16.877 10.5777 16.607 9.66219C16.5388 9.4387 16.3154 9.30042 16.085 9.339C16.0632 9.33293 16.041 9.32851 16.0186 9.32581H4.71153C4.68779 9.32863 4.6643 9.33334 4.64133 9.33994C4.41218 9.30343 4.19111 9.44129 4.12309 9.66313C3.85213 10.5782 3.13631 11.2939 2.22115 11.5646C1.99919 11.6324 1.86127 11.8536 1.89796 12.0828C1.89183 12.1057 1.88742 12.129 1.88477 12.1526V15.9216C1.88747 15.9437 1.89189 15.9656 1.89796 15.9871C1.85932 16.2177 1.99754 16.4414 2.22115 16.51ZM2.82702 12.3438C3.77304 11.9639 4.52284 11.2141 4.9028 10.2681H15.8268C16.207 11.2141 16.9569 11.9639 17.9031 12.3438V15.7303C16.9573 16.1107 16.2077 16.8604 15.8273 17.8061H4.9028C4.52243 16.8604 3.77275 16.1107 2.82702 15.7303V12.3438Z" fill="#5466ED"/>
<path d="M10.3648 16.8638C11.926 16.8638 13.1916 15.5982 13.1916 14.037C13.1916 12.4758 11.926 11.2103 10.3648 11.2103C8.80365 11.2103 7.53809 12.4758 7.53809 14.037C7.53962 15.5976 8.8043 16.8623 10.3648 16.8638ZM10.3648 12.1525C11.4056 12.1525 12.2494 12.9962 12.2494 14.037C12.2494 15.0778 11.4056 15.9215 10.3648 15.9215C9.32407 15.9215 8.48034 15.0778 8.48034 14.037C8.48034 12.9962 9.32407 12.1525 10.3648 12.1525Z" fill="#5466ED"/>
<path d="M5.18228 14.7437C5.57255 14.7437 5.88897 14.4273 5.88897 14.037C5.88897 13.6467 5.57255 13.3303 5.18228 13.3303C4.79201 13.3303 4.47559 13.6467 4.47559 14.037C4.47559 14.4273 4.79201 14.7437 5.18228 14.7437ZM5.18228 13.8014C5.31237 13.8014 5.41784 13.9069 5.41784 14.037C5.41784 14.1671 5.31237 14.2726 5.18228 14.2726C5.05219 14.2726 4.94671 14.1671 4.94671 14.037C4.94671 13.9069 5.05219 13.8014 5.18228 13.8014Z" fill="#5466ED"/>
<path d="M15.547 14.7437C15.9373 14.7437 16.2537 14.4273 16.2537 14.037C16.2537 13.6467 15.9373 13.3303 15.547 13.3303C15.1568 13.3303 14.8403 13.6467 14.8403 14.037C14.8403 14.4273 15.1568 14.7437 15.547 14.7437ZM15.547 13.8014C15.6771 13.8014 15.7826 13.9069 15.7826 14.037C15.7826 14.1671 15.6771 14.2726 15.547 14.2726C15.4169 14.2726 15.3115 14.1671 15.3115 14.037C15.3115 13.9069 15.4169 13.8014 15.547 13.8014Z" fill="#5466ED"/>
</svg>
