<svg width="37" height="38" viewBox="0 0 37 38" fill="none" xmlns="http://www.w3.org/2000/svg">
<path d="M31.0366 36.475H7.70814C4.87995 36.475 2.57959 34.1677 2.57959 31.3314V30.5787C2.57959 27.743 4.87995 25.4351 7.70814 25.4351H18.3208C20.5304 25.4351 22.3283 23.6308 22.3283 21.4131C22.3283 19.1948 20.5309 17.3905 18.3208 17.3905H5.95237C5.6425 17.3905 5.39159 17.1396 5.39159 16.8297C5.39159 16.5198 5.6425 16.2689 5.95237 16.2689H18.3208C21.149 16.2689 23.4493 18.5762 23.4493 21.4131C23.4493 24.2488 21.1484 26.5567 18.3208 26.5567H7.70814C5.49854 26.5567 3.70115 28.361 3.70115 30.5787V31.3314C3.70115 33.5491 5.49854 35.3534 7.70814 35.3534H31.0366C31.3465 35.3534 31.5974 35.6043 31.5974 35.9142C31.5974 36.2241 31.3459 36.475 31.0366 36.475Z" fill="#5466ED"/>
<path d="M5.9639 11.1439C3.94913 11.1439 2.30957 9.50488 2.30957 7.48953C2.30957 5.47419 3.94913 3.83521 5.9639 3.83521C7.97866 3.83521 9.61823 5.47419 9.61823 7.48953C9.61823 9.50488 7.97866 11.1439 5.9639 11.1439ZM5.9639 4.95619C4.56715 4.95619 3.43055 6.09278 3.43055 7.48953C3.43055 8.88628 4.56657 10.0229 5.9639 10.0229C7.36123 10.0229 8.49724 8.88628 8.49724 7.48953C8.49724 6.09278 7.36065 4.95619 5.9639 4.95619Z" fill="#5466ED"/>
<path d="M5.96394 17.3899C5.79917 17.3899 5.64366 17.3177 5.5367 17.1922C5.31066 16.9263 0 10.6432 0 7.48896C0 4.20059 2.67556 1.52502 5.96394 1.52502C9.25231 1.52502 11.9279 4.20059 11.9279 7.48896C11.9279 10.6426 6.61722 16.9263 6.39117 17.1922C6.28422 17.3177 6.12813 17.3899 5.96394 17.3899ZM5.96394 2.64659C3.29358 2.64659 1.12156 4.81918 1.12156 7.48954C1.12156 9.57195 4.29778 13.9056 5.96394 15.9521C7.63009 13.9044 10.8063 9.57079 10.8063 7.48954C10.8063 4.8186 8.6343 2.64659 5.96394 2.64659Z" fill="#5466ED"/>
<path d="M31.0367 30.2278C29.0219 30.2278 27.3823 28.5888 27.3823 26.5735C27.3823 24.5581 29.0219 22.9191 31.0367 22.9191C33.0514 22.9191 34.691 24.5581 34.691 26.5735C34.691 28.5888 33.0514 30.2278 31.0367 30.2278ZM31.0367 24.0401C29.6399 24.0401 28.5033 25.1767 28.5033 26.5735C28.5033 27.9702 29.6393 29.1068 31.0367 29.1068C32.4334 29.1068 33.57 27.9702 33.57 26.5735C33.5694 25.1767 32.4334 24.0401 31.0367 24.0401Z" fill="#5466ED"/>
<path d="M31.0367 36.475C30.8719 36.475 30.7164 36.4027 30.6095 36.2772C30.3834 36.0113 25.0728 29.7271 25.0728 26.5734C25.0728 23.285 27.7483 20.61 31.0367 20.61C34.3251 20.61 37.0001 23.285 37.0001 26.5734C37.0001 29.7271 31.6894 36.0113 31.4633 36.2772C31.357 36.4027 31.2009 36.475 31.0367 36.475ZM31.0367 21.731C28.3663 21.731 26.1943 23.9036 26.1943 26.5734C26.1943 28.6547 29.3711 32.9889 31.0367 35.0366C32.7028 32.9883 35.8791 28.6547 35.8791 26.5734C35.8791 23.9036 33.7065 21.731 31.0367 21.731Z" fill="#5466ED"/>
</svg>
