<svg width="32" height="30" viewBox="0 0 32 30" fill="none" xmlns="http://www.w3.org/2000/svg">
<path d="M4.3571 6.52613C4.78571 6.52586 5.20461 6.39852 5.56087 6.16022C5.91714 5.92193 6.19476 5.58336 6.35865 5.18733C6.52254 4.79129 6.56535 4.35555 6.48167 3.93519C6.39798 3.51483 6.19156 3.12871 5.88848 2.82564C5.58541 2.52257 5.19929 2.31614 4.77893 2.23246C4.35857 2.14877 3.92283 2.19158 3.5268 2.35547C3.13076 2.51937 2.7922 2.79699 2.5539 3.15325C2.3156 3.50951 2.18827 3.92842 2.18799 4.35703C2.18858 4.93213 2.41731 5.4835 2.82396 5.89016C3.23062 6.29682 3.782 6.52554 4.3571 6.52613ZM4.3571 3.17352C4.59089 3.1738 4.81935 3.24338 5.01361 3.37347C5.20786 3.50356 5.35919 3.68832 5.44847 3.9044C5.53774 4.12047 5.56096 4.35817 5.51518 4.58743C5.4694 4.8167 5.35667 5.02725 5.19126 5.19247C5.02585 5.35769 4.81516 5.47016 4.58584 5.51567C4.35652 5.56117 4.11886 5.53768 3.90289 5.44814C3.68692 5.35861 3.50234 5.20706 3.37248 5.01265C3.24262 4.81824 3.17331 4.58969 3.17331 4.3559C3.17398 4.04228 3.29896 3.74171 3.52086 3.52007C3.74275 3.29844 4.04347 3.17382 4.3571 3.17352Z" fill="#5466ED"/>
<path d="M4.3571 1.52274C4.48774 1.52266 4.613 1.47073 4.70538 1.37836C4.79776 1.28598 4.84968 1.16072 4.84976 1.03008V0.492659C4.84976 0.361998 4.79785 0.236688 4.70546 0.144297C4.61307 0.0519052 4.48776 0 4.3571 0C4.22644 0 4.10113 0.0519052 4.00874 0.144297C3.91635 0.236688 3.86444 0.361998 3.86444 0.492659V1.03008C3.86444 1.16074 3.91635 1.28605 4.00874 1.37844C4.10113 1.47083 4.22644 1.52274 4.3571 1.52274Z" fill="#5466ED"/>
<path d="M6.70974 2.49709C6.77442 2.49722 6.83849 2.48455 6.89825 2.45981C6.95802 2.43507 7.0123 2.39876 7.05798 2.35295L7.43803 1.9729C7.48378 1.92715 7.52007 1.87284 7.54483 1.81306C7.56959 1.75329 7.58233 1.68922 7.58233 1.62452C7.58233 1.55982 7.56959 1.49575 7.54483 1.43598C7.52007 1.3762 7.48378 1.32189 7.43803 1.27614C7.39228 1.23039 7.33796 1.1941 7.27819 1.16934C7.21841 1.14458 7.15435 1.13184 7.08965 1.13184C7.02495 1.13184 6.96088 1.14458 6.9011 1.16934C6.84133 1.1941 6.78702 1.23039 6.74127 1.27614L6.36121 1.65619C6.29235 1.72511 6.24546 1.81289 6.22648 1.90845C6.2075 2.00401 6.21728 2.10306 6.25458 2.19306C6.29189 2.28306 6.35504 2.35998 6.43605 2.4141C6.51707 2.46822 6.61231 2.4971 6.70974 2.49709Z" fill="#5466ED"/>
<path d="M7.19141 4.35704C7.19141 4.4877 7.24331 4.61301 7.3357 4.7054C7.42809 4.79779 7.5534 4.8497 7.68407 4.8497H8.22149C8.35215 4.8497 8.47746 4.79779 8.56985 4.7054C8.66224 4.61301 8.71414 4.4877 8.71414 4.35704C8.71414 4.22638 8.66224 4.10107 8.56985 4.00868C8.47746 3.91628 8.35215 3.86438 8.22149 3.86438H7.68407C7.55343 3.86445 7.42816 3.91638 7.33579 4.00876C7.24341 4.10113 7.19148 4.2264 7.19141 4.35704Z" fill="#5466ED"/>
<path d="M6.36124 6.36121C6.2689 6.45364 6.21704 6.57895 6.21704 6.70959C6.21704 6.84024 6.2689 6.96555 6.36124 7.05797L6.74129 7.43803C6.78673 7.48509 6.84108 7.52263 6.90118 7.54846C6.96128 7.5743 7.02593 7.5879 7.09134 7.58848C7.15676 7.58906 7.22163 7.57661 7.28218 7.55185C7.34273 7.52709 7.39775 7.49052 7.44401 7.44427C7.49028 7.39803 7.52687 7.34303 7.55166 7.28249C7.57644 7.22195 7.58892 7.15708 7.58836 7.09166C7.58781 7.02625 7.57423 6.9616 7.54842 6.90148C7.52262 6.84137 7.48509 6.787 7.43805 6.74155L7.058 6.3615C7.01227 6.31572 6.95797 6.27941 6.89821 6.25462C6.83844 6.22984 6.77438 6.21707 6.70968 6.21704C6.64498 6.21701 6.5809 6.22973 6.52112 6.25447C6.46133 6.27921 6.40701 6.31548 6.36124 6.36121Z" fill="#5466ED"/>
<path d="M3.86444 7.68407V8.22148C3.86444 8.35215 3.91635 8.47746 4.00874 8.56985C4.10113 8.66224 4.22644 8.71414 4.3571 8.71414C4.48776 8.71414 4.61307 8.66224 4.70546 8.56985C4.79785 8.47746 4.84976 8.35215 4.84976 8.22148V7.68407C4.84976 7.5534 4.79785 7.42809 4.70546 7.3357C4.61307 7.24331 4.48776 7.19141 4.3571 7.19141C4.22644 7.19141 4.10113 7.24331 4.00874 7.3357C3.91635 7.42809 3.86444 7.5534 3.86444 7.68407Z" fill="#5466ED"/>
<path d="M1.65703 6.36147L1.27698 6.74152C1.22993 6.78698 1.19241 6.84135 1.16661 6.90146C1.1408 6.96157 1.12722 7.02622 1.12667 7.09164C1.12611 7.15705 1.13859 7.22192 1.16337 7.28246C1.18816 7.343 1.22475 7.398 1.27101 7.44425C1.31728 7.4905 1.37229 7.52707 1.43285 7.55183C1.4934 7.57659 1.55827 7.58904 1.62369 7.58846C1.6891 7.58788 1.75375 7.57427 1.81385 7.54844C1.87395 7.52261 1.9283 7.48507 1.97374 7.438L2.35379 7.05795C2.40084 7.0125 2.43836 6.95813 2.46416 6.89802C2.48997 6.8379 2.50355 6.77325 2.5041 6.70784C2.50466 6.64242 2.49218 6.57755 2.4674 6.51701C2.44261 6.45647 2.40602 6.40147 2.35975 6.35522C2.31349 6.30898 2.25847 6.27241 2.19792 6.24765C2.13737 6.22289 2.0725 6.21044 2.00708 6.21102C1.94167 6.2116 1.87702 6.2252 1.81692 6.25104C1.75682 6.27687 1.70247 6.31441 1.65703 6.36147Z" fill="#5466ED"/>
<path d="M1.52274 4.35704C1.52266 4.2264 1.47073 4.10113 1.37836 4.00876C1.28598 3.91638 1.16072 3.86445 1.03008 3.86438H0.492659C0.361998 3.86438 0.236688 3.91628 0.144296 4.00868C0.0519049 4.10107 0 4.22638 0 4.35704C0 4.4877 0.0519049 4.61301 0.144296 4.7054C0.236688 4.79779 0.361998 4.8497 0.492659 4.8497H1.03008C1.16074 4.8497 1.28605 4.79779 1.37844 4.7054C1.47083 4.61301 1.52274 4.4877 1.52274 4.35704Z" fill="#5466ED"/>
<path d="M1.65705 2.3532C1.74944 2.44559 1.87476 2.4975 2.00543 2.4975C2.13609 2.4975 2.26141 2.44559 2.35381 2.3532C2.4462 2.2608 2.49811 2.13548 2.49811 2.00482C2.49811 1.87415 2.4462 1.74883 2.35381 1.65644L1.97375 1.27638C1.88136 1.18399 1.75604 1.13208 1.62537 1.13208C1.49471 1.13208 1.36939 1.18399 1.27699 1.27638C1.1846 1.36878 1.13269 1.4941 1.13269 1.62476C1.13269 1.68946 1.14543 1.75353 1.17019 1.81331C1.19495 1.87308 1.23124 1.92739 1.27699 1.97314L1.65705 2.3532Z" fill="#5466ED"/>
<path d="M23.0525 7.97123C23.1136 7.9971 23.1793 8.01041 23.2456 8.01036H27.3916C27.471 8.01019 27.5492 7.99087 27.6196 7.95406C28.5545 7.46562 29.0835 6.68412 29.0714 5.80973C29.0634 5.40924 28.9455 5.01866 28.7305 4.68072C28.5154 4.34278 28.2115 4.07051 27.8521 3.8937C27.5506 3.74836 27.2187 3.67736 26.8841 3.68667C26.5495 3.69597 26.222 3.78531 25.9291 3.94719C24.6428 2.44726 23.3844 2.60491 22.8785 2.7544C22.3684 2.92112 21.9208 3.23852 21.5948 3.66475C21.2687 4.09097 21.0795 4.60602 21.052 5.14196C20.9814 6.35081 21.7294 7.40819 23.0525 7.97123ZM23.1581 3.69974C23.8942 3.48212 24.6974 3.90525 25.4204 4.89141C25.459 4.94422 25.5077 4.98881 25.5638 5.02255C25.6198 5.0563 25.6821 5.07853 25.7468 5.08794C25.8116 5.09735 25.8775 5.09375 25.9409 5.07736C26.0042 5.06097 26.0637 5.03211 26.1157 4.99247C26.2898 4.8353 26.5055 4.73166 26.737 4.69396C26.9684 4.65626 27.2059 4.68611 27.4208 4.77993C27.6157 4.87762 27.7804 5.02626 27.8975 5.21006C28.0146 5.39386 28.0798 5.60595 28.0861 5.8238C28.0925 6.2914 27.8023 6.71481 27.2654 7.02504H23.3484C22.4681 6.62191 21.9906 5.96034 22.0345 5.19911C22.0512 4.86588 22.1669 4.5452 22.3669 4.2781C22.5668 4.011 22.8419 3.80962 23.1569 3.69974H23.1581Z" fill="#5466ED"/>
<path d="M30.6918 15.3555H29.0795C29.0022 15.3555 28.9259 15.3737 28.8569 15.4086C28.7879 15.4436 28.7281 15.4944 28.6823 15.5568L24.377 21.4211H21.909L19.7886 14.0478C20.0373 13.8734 20.2255 13.6257 20.3267 13.3393C20.4279 13.0528 20.4371 12.7419 20.353 12.4499C20.269 12.158 20.0959 11.8995 19.8578 11.7107C19.6198 11.5219 19.3288 11.4121 19.0254 11.3967L18.1909 8.49512C18.1549 8.36957 18.0704 8.2635 17.9561 8.20022C17.8419 8.13695 17.7071 8.12166 17.5816 8.15772C17.456 8.19378 17.35 8.27824 17.2867 8.39252C17.2234 8.50679 17.2081 8.64152 17.2442 8.76707L17.9978 11.39H16.9207L14.9028 9.39486C14.7956 9.29058 14.6812 9.19397 14.5605 9.10574C15.0838 8.80389 15.4976 8.34343 15.7421 7.79093C15.9865 7.23843 16.049 6.6225 15.9203 6.03218C15.7917 5.44186 15.4787 4.90774 15.0266 4.50702C14.5744 4.1063 14.0065 3.85975 13.405 3.803C12.8035 3.74625 12.1996 3.88225 11.6805 4.19133C11.1613 4.50041 10.7539 4.96656 10.5172 5.52241C10.2804 6.07825 10.2265 6.69498 10.3634 7.28346C10.5002 7.87193 10.8206 8.40166 11.2782 8.79606C11.0464 8.90687 10.829 9.04556 10.6307 9.20905C10.5616 8.94553 10.4394 8.69892 10.2715 8.48436C10.1036 8.2698 9.89362 8.09183 9.65445 7.96138C9.41529 7.83092 9.15197 7.75073 8.88069 7.72574C8.6094 7.70074 8.33587 7.73147 8.0769 7.81604C7.81792 7.9006 7.57896 8.03722 7.3747 8.21749C7.17044 8.39776 7.00519 8.61789 6.8891 8.86435C6.77301 9.11081 6.70852 9.3784 6.69961 9.65069C6.69069 9.92298 6.73753 10.1942 6.83726 10.4477C6.73176 10.4594 6.63299 10.5053 6.5561 10.5785C6.47922 10.6517 6.42845 10.7481 6.4116 10.8528L5.62334 15.5511C5.53092 16.0877 5.65183 16.6392 5.96029 17.088C6.26875 17.5367 6.74034 17.8471 7.27446 17.953C7.41253 17.9815 7.55322 17.9955 7.6942 17.9947C7.98886 17.9937 8.27996 17.9303 8.54833 17.8086L8.52834 20.5675L7.11117 23.3526C6.95768 23.6495 6.88271 23.9808 6.8934 24.3149C6.9041 24.649 7.00009 24.9748 7.17226 25.2613H6.43018C6.33102 25.2612 6.23416 25.2912 6.15232 25.3472L0.752496 29.0311C0.646934 29.1057 0.574913 29.2188 0.55196 29.346C0.529008 29.4732 0.556963 29.6043 0.629798 29.7111C0.702633 29.8179 0.814513 29.8917 0.941316 29.9168C1.06812 29.9418 1.19969 29.9161 1.30765 29.845L6.58361 26.2452H8.88447H8.89066H8.89657H15.2082C15.3313 26.2453 15.4499 26.1993 15.5407 26.1163L19.5968 22.4064H24.6265C24.7038 22.4064 24.7801 22.3882 24.8491 22.3532C24.9181 22.3183 24.9779 22.2675 25.0237 22.2051L29.3304 16.3408H30.6932C30.8239 16.3408 30.9492 16.2889 31.0416 16.1965C31.134 16.1041 31.1859 15.9788 31.1859 15.8481C31.1859 15.7175 31.134 15.5922 31.0416 15.4998C30.9492 15.4074 30.8239 15.3555 30.6932 15.3555H30.6918ZM13.1365 4.78047C13.5048 4.78047 13.8648 4.88968 14.171 5.09427C14.4772 5.29887 14.7158 5.58967 14.8568 5.9299C14.9977 6.27013 15.0346 6.64451 14.9627 7.00569C14.8909 7.36688 14.7135 7.69865 14.4531 7.95905C14.1927 8.21945 13.861 8.39679 13.4998 8.46863C13.1386 8.54048 12.7642 8.50361 12.424 8.36268C12.0838 8.22175 11.793 7.9831 11.5884 7.6769C11.3838 7.3707 11.2746 7.01071 11.2746 6.64244C11.2751 6.14878 11.4714 5.67548 11.8205 5.32641C12.1696 4.97733 12.6429 4.78099 13.1365 4.78047ZM12.6416 9.46749H12.6774C13.2512 9.4653 13.8024 9.691 14.21 10.095L16.372 12.2326C16.4641 12.324 16.5886 12.3753 16.7183 12.3753H18.9448C19.0605 12.3749 19.1723 12.4163 19.2598 12.4919C19.3472 12.5676 19.4043 12.6723 19.4205 12.7868C19.4367 12.9013 19.4109 13.0178 19.3479 13.1147C19.2849 13.2117 19.1889 13.2825 19.0777 13.3142C18.895 13.362 19.3083 13.3142 14.5022 13.3353L13.056 12.029C12.959 11.9415 12.8311 11.896 12.7005 11.9027C12.57 11.9094 12.4474 11.9677 12.3598 12.0648C12.2722 12.1618 12.2268 12.2897 12.2335 12.4203C12.2402 12.5509 12.2985 12.6734 12.3956 12.761L13.7905 14.018L13.7367 14.4183C12.2627 14.9633 10.5865 14.925 9.7766 14.8611C9.96668 13.5768 10.2277 12.304 10.5584 11.0485C10.6847 10.5933 10.9569 10.1921 11.3332 9.9065C11.7096 9.6209 12.1692 9.46668 12.6416 9.46749ZM18.1985 22.3498C18.1153 22.4261 18.0173 22.4845 17.9106 22.5215C17.804 22.5584 17.6909 22.5732 17.5783 22.5649C17.4657 22.5566 17.356 22.5253 17.2559 22.473C17.1559 22.4207 17.0676 22.3485 16.9964 22.2609L15.3028 20.1759C14.4735 19.1551 12.7615 18.4007 11.6374 18.2973C11.0322 18.1847 10.3425 18.3658 9.81658 17.7152C9.70182 17.5741 9.61672 17.4113 9.56637 17.2366C9.51601 17.0619 9.50143 16.8788 9.52351 16.6983C9.5588 16.4067 9.5954 16.1205 9.63331 15.8397C9.90582 15.8633 10.274 15.8856 10.7059 15.8856C11.6803 15.893 12.651 15.7644 13.5898 15.5033L13.4659 16.4224C13.4518 16.5268 13.4715 16.633 13.5222 16.7254C13.5729 16.8177 13.6518 16.8914 13.7474 16.9356L15.0514 17.5353C15.5801 17.7787 16.038 18.1526 16.3822 18.6219L18.3066 21.2488C18.4278 21.4133 18.4837 21.6168 18.4638 21.82C18.4438 22.0233 18.3493 22.212 18.1985 22.3498ZM8.69838 8.69753C8.89922 8.69776 9.09549 8.75752 9.26238 8.86926C9.42927 8.981 9.55928 9.13972 9.63598 9.32534C9.71269 9.51095 9.73264 9.71515 9.69332 9.9121C9.654 10.1091 9.55718 10.2899 9.41508 10.4319C9.27298 10.5738 9.092 10.6704 8.895 10.7095C8.698 10.7486 8.49383 10.7285 8.30829 10.6516C8.12276 10.5746 7.96419 10.4445 7.85263 10.2774C7.74108 10.1104 7.68153 9.9141 7.68153 9.71326C7.68183 9.44377 7.78909 9.18542 7.97976 8.99496C8.17042 8.80451 8.42889 8.69753 8.69838 8.69753ZM7.69561 17.0091C7.6215 17.0099 7.54751 17.0028 7.4749 16.988C7.19122 16.9323 6.94057 16.7678 6.77646 16.5298C6.61235 16.2918 6.54779 15.9991 6.59656 15.7141L7.30317 11.5026L9.3425 11.8542C9.10996 12.8654 8.90417 13.9893 8.72709 15.2158L8.72541 15.2223V15.2308C8.66235 15.6688 8.6021 16.117 8.54636 16.582C8.54495 16.5927 8.54636 16.6032 8.54411 16.6136C8.44025 16.7376 8.31043 16.8373 8.16382 16.9056C8.0172 16.974 7.85737 17.0093 7.69561 17.0091ZM8.75497 25.2509C8.59558 25.2296 8.4436 25.1705 8.31178 25.0784C8.17996 24.9863 8.07213 24.8639 7.99733 24.7216C7.92253 24.5792 7.88294 24.421 7.88188 24.2602C7.88081 24.0994 7.9183 23.9407 7.9912 23.7974L9.46102 20.909C9.49565 20.841 9.51396 20.7658 9.51451 20.6894L9.5283 18.7799C10.2588 19.2948 10.917 19.1813 11.5048 19.2745V21.3389L9.78448 24.7106C9.6906 24.8968 9.5409 25.0489 9.35631 25.1458C9.17172 25.2426 8.96147 25.2794 8.75497 25.2509ZM15.0171 25.2599H10.6015C10.7352 25.0316 10.4827 25.4972 12.4361 21.6809C12.4717 21.6112 12.4902 21.534 12.4899 21.4557V19.507C13.3477 19.8496 13.9605 20.0861 14.5379 20.7972L16.2316 22.8822C16.4368 23.1333 16.7055 23.3249 17.0097 23.4373L15.0171 25.2599ZM19.4186 21.4211C19.3726 21.1487 19.2645 20.8906 19.1028 20.6666L17.1783 18.0398C16.735 17.4352 16.1451 16.9535 15.4641 16.64L14.4912 16.1927L14.7446 14.3192H18.8412L20.8848 21.4211H19.4186Z" fill="#5466ED"/>
</svg>
