<svg width="30" height="30" viewBox="0 0 30 30" fill="none" xmlns="http://www.w3.org/2000/svg">
<path d="M27.5208 15.9979H23.4078C23.1881 15.9972 22.9707 15.9525 22.7685 15.8666C22.5663 15.7806 22.3833 15.6551 22.2303 15.4975L19.707 12.9742C19.6676 12.9351 19.6363 12.8885 19.6149 12.8373C19.5936 12.786 19.5826 12.7311 19.5826 12.6756C19.5826 12.62 19.5936 12.5651 19.6149 12.5138C19.6363 12.4626 19.6676 12.4161 19.707 12.377C19.7858 12.2986 19.8924 12.2547 20.0035 12.2547C20.1146 12.2547 20.2212 12.2986 20.3 12.377L22.8443 14.9213C22.9198 14.9987 23.01 15.0602 23.1097 15.1021C23.2094 15.144 23.3165 15.1655 23.4246 15.1652H27.5376C27.657 15.1643 27.775 15.1397 27.8847 15.0928C27.9944 15.0458 28.0938 14.9775 28.1769 14.8919C28.307 14.7655 28.3964 14.6031 28.4334 14.4256C28.4705 14.248 28.4536 14.0634 28.3848 13.8956C28.316 13.7278 28.1986 13.5843 28.0476 13.4838C27.8966 13.3833 27.719 13.3303 27.5376 13.3316H24.3835C24.2712 13.3312 24.1601 13.3082 24.0569 13.2642C23.9536 13.2201 23.8601 13.1558 23.7821 13.0751L21.2798 10.6149C21.2222 10.5337 21.1953 10.4346 21.2039 10.3354C21.2125 10.2363 21.2559 10.1433 21.3266 10.0732C21.3972 10.003 21.4905 9.96021 21.5897 9.95236C21.689 9.94451 21.7878 9.97213 21.8686 10.0303L24.3583 12.4947H27.5208C27.9859 12.4947 28.432 12.6795 28.7608 13.0084C29.0897 13.3373 29.2745 13.7833 29.2745 14.2484C29.2745 14.7135 29.0897 15.1596 28.7608 15.4885C28.432 15.8173 27.9859 16.0021 27.5208 16.0021V15.9979Z" fill="#5466ED"/>
<path d="M19.5345 29.7962C19.0389 29.794 18.5642 29.5961 18.2137 29.2456C17.8632 28.8951 17.6653 28.4204 17.6631 27.9247V21.7553C17.6627 21.6901 17.6486 21.6258 17.6218 21.5664C17.595 21.507 17.5561 21.4539 17.5075 21.4104L13.5417 17.8862C12.9199 17.3307 12.5246 16.5655 12.4315 15.7369C12.3384 14.9082 12.554 14.0744 13.0371 13.3947L15.5604 9.79062L12.3978 9.51727C12.3656 9.51486 12.3332 9.51924 12.3028 9.5301C12.2724 9.54097 12.2446 9.55808 12.2212 9.58035L9.42453 12.4022C9.27801 12.5525 9.10267 12.6717 8.909 12.7526C8.71534 12.8336 8.50734 12.8746 8.29746 12.8733C7.98202 12.8736 7.67361 12.7801 7.41146 12.6047C7.14931 12.4293 6.94529 12.1798 6.82534 11.888C6.7054 11.5963 6.67496 11.2755 6.7379 10.9664C6.80084 10.6573 6.95432 10.3739 7.17879 10.1523L10.9343 6.46828C11.0643 6.33559 11.2193 6.23008 11.3904 6.15788C11.5615 6.08568 11.7453 6.04824 11.931 6.04773H17.9953C18.4105 6.0474 18.8177 6.16085 19.1729 6.37576L21.1831 7.58274C21.4355 7.73245 21.6546 7.93215 21.8269 8.1696C21.9993 8.40704 22.1214 8.67721 22.1855 8.96353C22.2497 9.24984 22.2547 9.54625 22.2002 9.83457C22.1457 10.1229 22.0329 10.397 21.8686 10.6401L18.0837 16.2713L20.9728 18.9923C21.1022 19.1079 21.2063 19.2491 21.2787 19.4068C21.3511 19.5645 21.3901 19.7355 21.3934 19.9091L21.4396 27.8995C21.4464 28.3944 21.2568 28.8719 20.9124 29.2273C20.5679 29.5828 20.0967 29.7873 19.6018 29.7962H19.5345ZM12.3852 8.67617H12.4777L16.3762 9.0084C16.4504 9.01452 16.5216 9.04021 16.5826 9.08286C16.6436 9.1255 16.6922 9.18358 16.7234 9.25114C16.7546 9.31871 16.7674 9.39334 16.7603 9.46744C16.7532 9.54153 16.7266 9.61242 16.6832 9.67287L13.7057 13.8784C13.3381 14.3911 13.1738 15.022 13.2445 15.6489C13.3152 16.2758 13.6159 16.8542 14.0884 17.2722L18.0542 20.7964C18.1884 20.9199 18.2951 21.0702 18.3675 21.2375C18.44 21.4049 18.4765 21.5855 18.4748 21.7679V27.9374C18.4779 28.0769 18.5091 28.2144 18.5664 28.3417C18.6237 28.469 18.706 28.5835 18.8083 28.6784C18.9107 28.7733 19.0311 28.8467 19.1623 28.8942C19.2936 28.9417 19.433 28.9624 19.5724 28.9551C19.8427 28.9474 20.0992 28.8337 20.2864 28.6386C20.4737 28.4435 20.5767 28.1825 20.5733 27.9121L20.527 19.9217C20.5268 19.8628 20.5147 19.8045 20.4916 19.7504C20.4685 19.6962 20.4348 19.6472 20.3925 19.6063L17.2426 16.6624C17.1703 16.5945 17.1243 16.5033 17.1127 16.4048C17.1012 16.3063 17.1248 16.2069 17.1795 16.1241L21.1663 10.1986C21.265 10.0502 21.3325 9.88333 21.3648 9.70808C21.3971 9.53284 21.3935 9.35287 21.3541 9.17906C21.3148 9.00526 21.2406 8.84126 21.136 8.69698C21.0315 8.5527 20.8987 8.43116 20.7457 8.33973L18.7355 7.13275C18.5118 6.99479 18.254 6.92197 17.9911 6.92247H11.9268C11.8489 6.92015 11.7714 6.93389 11.699 6.96283C11.6267 6.99177 11.5611 7.03529 11.5063 7.09069L7.76336 10.7789C7.62365 10.9199 7.54527 11.1103 7.54527 11.3088C7.54527 11.5073 7.62365 11.6977 7.76336 11.8387C7.83348 11.9087 7.9168 11.964 8.00848 12.0016C8.10017 12.0391 8.19839 12.0581 8.29746 12.0574C8.39837 12.0551 8.49776 12.0322 8.58957 11.9903C8.68139 11.9484 8.76372 11.8882 8.83155 11.8135L11.6282 8.99158C11.7259 8.8909 11.8429 8.81105 11.9723 8.75684C12.1017 8.70263 12.2407 8.67519 12.381 8.67617H12.3852Z" fill="#5466ED"/>
<path d="M11.9562 23.1767H5.33256C5.08802 23.1885 4.84364 23.1505 4.61422 23.065C4.38479 22.9796 4.17511 22.8485 3.99787 22.6796C3.82064 22.5107 3.67954 22.3076 3.58313 22.0825C3.48672 21.8575 3.43701 21.6152 3.43701 21.3704C3.43701 21.1256 3.48672 20.8833 3.58313 20.6583C3.67954 20.4332 3.82064 20.2301 3.99787 20.0612C4.17511 19.8923 4.38479 19.7612 4.61422 19.6758C4.84364 19.5903 5.08802 19.5523 5.33256 19.5641H10.0932L12.7511 16.2839C12.8213 16.1969 12.9233 16.1413 13.0345 16.1295C13.1457 16.1177 13.257 16.1505 13.344 16.2208C13.431 16.291 13.4866 16.393 13.4984 16.5042C13.5102 16.6154 13.4774 16.7267 13.4071 16.8137L10.5978 20.2496C10.5583 20.2984 10.5082 20.3377 10.4515 20.3647C10.3947 20.3916 10.3326 20.4055 10.2698 20.4052H5.33256C5.20045 20.3965 5.06796 20.415 4.94329 20.4596C4.81862 20.5041 4.70443 20.5738 4.60777 20.6643C4.51112 20.7547 4.43407 20.8641 4.3814 20.9856C4.32873 21.107 4.30155 21.238 4.30155 21.3704C4.30155 21.5028 4.32873 21.6338 4.3814 21.7552C4.43407 21.8767 4.51112 21.9861 4.60777 22.0765C4.70443 22.167 4.81862 22.2367 4.94329 22.2812C5.06796 22.3258 5.20045 22.3443 5.33256 22.3356H11.7754L14.8538 18.5128C14.9248 18.4297 15.0253 18.3775 15.134 18.3672C15.2428 18.3569 15.3513 18.3893 15.4366 18.4577C15.5219 18.526 15.5772 18.6248 15.5909 18.7332C15.6045 18.8416 15.5755 18.9511 15.5099 19.0385L12.3053 23.0211C12.2635 23.0727 12.2101 23.1138 12.1494 23.1408C12.0888 23.1678 12.0226 23.1801 11.9562 23.1767Z" fill="#5466ED"/>
<path d="M22.8359 6.62806C22.215 6.62889 21.6079 6.44549 21.0913 6.10108C20.5748 5.75667 20.172 5.26673 19.934 4.69329C19.696 4.11985 19.6336 3.4887 19.7545 2.87973C19.8754 2.27076 20.1743 1.71136 20.6133 1.27235C21.0523 0.833338 21.6117 0.534453 22.2207 0.413534C22.8296 0.292614 23.4608 0.355098 24.0342 0.593074C24.6077 0.83105 25.0976 1.23382 25.442 1.75039C25.7864 2.26696 25.9698 2.8741 25.969 3.49496C25.9679 4.32557 25.6374 5.12184 25.0501 5.70917C24.4628 6.29649 23.6665 6.62694 22.8359 6.62806ZM22.8359 1.19876C22.3816 1.19793 21.9372 1.33189 21.5591 1.58369C21.1809 1.8355 20.8859 2.19382 20.7115 2.61332C20.5371 3.03283 20.491 3.49465 20.5791 3.94034C20.6672 4.38604 20.8856 4.79558 21.2065 5.11713C21.5275 5.43868 21.9366 5.65779 22.3822 5.74673C22.8277 5.83567 23.2896 5.79044 23.7094 5.61677C24.1293 5.4431 24.4881 5.1488 24.7406 4.7711C24.9931 4.3934 25.1279 3.94929 25.1279 3.49496C25.1268 2.88704 24.8851 2.30427 24.4556 1.87401C24.0261 1.44375 23.4438 1.20098 22.8359 1.19876Z" fill="#5466ED"/>
<path d="M9.39087 4.8071H5.04659C4.93505 4.8071 4.82808 4.7628 4.74921 4.68393C4.67035 4.60506 4.62604 4.49809 4.62604 4.38655C4.62604 4.27502 4.67035 4.16805 4.74921 4.08918C4.82808 4.01031 4.93505 3.966 5.04659 3.966H9.39087C9.5024 3.966 9.60937 4.01031 9.68824 4.08918C9.76711 4.16805 9.81142 4.27502 9.81142 4.38655C9.81142 4.49809 9.76711 4.60506 9.68824 4.68393C9.60937 4.7628 9.5024 4.8071 9.39087 4.8071Z" fill="#5466ED"/>
<path d="M3.61252 4.8071H3.19197C3.08044 4.8071 2.97347 4.7628 2.8946 4.68393C2.81573 4.60506 2.77142 4.49809 2.77142 4.38655C2.77142 4.27502 2.81573 4.16805 2.8946 4.08918C2.97347 4.01031 3.08044 3.966 3.19197 3.966H3.61252C3.72406 3.966 3.83103 4.01031 3.9099 4.08918C3.98877 4.16805 4.03307 4.27502 4.03307 4.38655C4.03307 4.49809 3.98877 4.60506 3.9099 4.68393C3.83103 4.7628 3.72406 4.8071 3.61252 4.8071Z" fill="#5466ED"/>
<path d="M4.76483 7.42289H0.42055C0.309013 7.42289 0.202045 7.37858 0.123176 7.29971C0.0443078 7.22084 0 7.11387 0 7.00234C0 6.8908 0.0443078 6.78383 0.123176 6.70496C0.202045 6.6261 0.309013 6.58179 0.42055 6.58179H4.76483C4.87637 6.58179 4.98334 6.6261 5.0622 6.70496C5.14107 6.78383 5.18538 6.8908 5.18538 7.00234C5.18538 7.11387 5.14107 7.22084 5.0622 7.29971C4.98334 7.37858 4.87637 7.42289 4.76483 7.42289Z" fill="#5466ED"/>
<path d="M6.61948 7.42289H6.19893C6.08739 7.42289 5.98043 7.37858 5.90156 7.29971C5.82269 7.22084 5.77838 7.11387 5.77838 7.00234C5.77838 6.8908 5.82269 6.78383 5.90156 6.70496C5.98043 6.6261 6.08739 6.58179 6.19893 6.58179H6.61948C6.73102 6.58179 6.83799 6.6261 6.91686 6.70496C6.99572 6.78383 7.04003 6.8908 7.04003 7.00234C7.04003 7.11387 6.99572 7.22084 6.91686 7.29971C6.83799 7.37858 6.73102 7.42289 6.61948 7.42289Z" fill="#5466ED"/>
<path d="M7.99045 14.7489H3.62935C3.51781 14.7489 3.41085 14.7046 3.33198 14.6257C3.25311 14.5468 3.2088 14.4399 3.2088 14.3283C3.2088 14.2168 3.25311 14.1098 3.33198 14.031C3.41085 13.9521 3.51781 13.9078 3.62935 13.9078H7.99045C8.10199 13.9078 8.20896 13.9521 8.28783 14.031C8.3667 14.1098 8.411 14.2168 8.411 14.3283C8.411 14.4399 8.3667 14.5468 8.28783 14.6257C8.20896 14.7046 8.10199 14.7489 7.99045 14.7489Z" fill="#5466ED"/>
<path d="M9.82828 14.7489H9.40773C9.2962 14.7489 9.18923 14.7046 9.11036 14.6257C9.03149 14.5468 8.98718 14.4399 8.98718 14.3283C8.98718 14.2168 9.03149 14.1098 9.11036 14.031C9.18923 13.9521 9.2962 13.9078 9.40773 13.9078H9.82828C9.93982 13.9078 10.0468 13.9521 10.1257 14.031C10.2045 14.1098 10.2488 14.2168 10.2488 14.3283C10.2488 14.4399 10.2045 14.5468 10.1257 14.6257C10.0468 14.7046 9.93982 14.7489 9.82828 14.7489Z" fill="#5466ED"/>
<path d="M6.7288 17.6002H2.36769C2.25616 17.6002 2.14919 17.5559 2.07032 17.477C1.99145 17.3981 1.94714 17.2912 1.94714 17.1796C1.94714 17.0681 1.99145 16.9611 2.07032 16.8823C2.14919 16.8034 2.25616 16.7591 2.36769 16.7591H6.7288C6.84033 16.7591 6.9473 16.8034 7.02617 16.8823C7.10504 16.9611 7.14935 17.0681 7.14935 17.1796C7.14935 17.2912 7.10504 17.3981 7.02617 17.477C6.9473 17.5559 6.84033 17.6002 6.7288 17.6002Z" fill="#5466ED"/>
<path d="M0.933629 17.6002H0.513079C0.401542 17.6002 0.294574 17.5559 0.215705 17.477C0.136837 17.3981 0.0925293 17.2912 0.0925293 17.1796C0.0925293 17.0681 0.136837 16.9611 0.215705 16.8823C0.294574 16.8034 0.401542 16.7591 0.513079 16.7591H0.933629C1.04517 16.7591 1.15213 16.8034 1.231 16.8823C1.30987 16.9611 1.35418 17.0681 1.35418 17.1796C1.35418 17.2912 1.30987 17.3981 1.231 17.477C1.15213 17.5559 1.04517 17.6002 0.933629 17.6002Z" fill="#5466ED"/>
</svg>
