<svg width="22" height="26" viewBox="0 0 22 26" fill="none" xmlns="http://www.w3.org/2000/svg">
<mask id="path-1-inside-1_33_586" fill="white">
<path fill-rule="evenodd" clip-rule="evenodd" d="M12.8646 0.153178C17.5413 0.936584 21.2992 4.74704 21.8967 9.44561C22.3665 13.1551 21.2335 16.3654 18.494 18.9587C16.7657 20.5959 15.0193 22.2149 13.2731 23.8336C12.6444 24.4165 12.0156 24.9994 11.3878 25.583C11.299 25.6666 11.2058 25.7451 11.1015 25.8328C11.0402 25.8843 10.9751 25.9391 10.9049 26C10.8259 25.9255 10.7487 25.8527 10.6729 25.7812C10.509 25.6264 10.3514 25.4777 10.1946 25.3306C9.36655 24.544 8.53746 23.7584 7.70837 22.9727C6.25744 21.5978 4.80651 20.2229 3.3609 18.8427C-0.0907241 15.5483 -0.988861 10.2982 1.1569 6.04649C3.33084 1.74243 8.07894 -0.647056 12.8646 0.153178ZM10.8437 14C12.7767 14 14.3437 12.433 14.3437 10.5C14.3437 8.56705 12.7767 7.00005 10.8437 7.00005C8.91074 7.00005 7.34373 8.56705 7.34373 10.5C7.34373 12.433 8.91074 14 10.8437 14Z"/>
</mask>
<path d="M21.8967 9.44561L22.8888 9.31998L22.8887 9.31946L21.8967 9.44561ZM12.8646 0.153178L13.0298 -0.83308L13.0296 -0.833128L12.8646 0.153178ZM18.494 18.9587L17.8065 18.2324L17.8062 18.2327L18.494 18.9587ZM13.2731 23.8336L13.953 24.567H13.953L13.2731 23.8336ZM11.3878 25.583L10.7069 24.8506L10.7021 24.8551L11.3878 25.583ZM11.1015 25.8328L10.4578 25.0675L10.4578 25.0675L11.1015 25.8328ZM10.9049 26L10.2189 26.7276L10.8768 27.3478L11.56 26.7555L10.9049 26ZM10.6729 25.7812L9.98655 26.5084L9.98656 26.5084L10.6729 25.7812ZM10.1946 25.3306L9.50591 26.0557L9.51051 26.06L10.1946 25.3306ZM7.70837 22.9727L7.02054 23.6986H7.02054L7.70837 22.9727ZM3.3609 18.8427L4.05146 18.1195L4.05135 18.1194L3.3609 18.8427ZM1.1569 6.04649L0.264296 5.59564L0.264149 5.59593L1.1569 6.04649ZM22.8887 9.31946C22.234 4.17062 18.1291 0.0211106 13.0298 -0.83308L12.6994 1.13944C16.9536 1.85206 20.3645 5.32346 20.9047 9.57176L22.8887 9.31946ZM19.1814 19.6849C22.1535 16.8714 23.3984 13.3443 22.8888 9.31998L20.9047 9.57124C21.3345 12.9659 20.3134 15.8593 17.8065 18.2324L19.1814 19.6849ZM13.953 24.567C15.6984 22.9489 17.4489 21.3262 19.1817 19.6846L17.8062 18.2327C16.0826 19.8656 14.3401 21.481 12.5933 23.1002L13.953 24.567ZM12.0686 26.3154C12.6959 25.7323 13.3241 25.15 13.953 24.567L12.5933 23.1002C11.9646 23.6831 11.3353 24.2664 10.7069 24.8506L12.0686 26.3154ZM11.7452 26.5981C11.8453 26.5139 11.9606 26.4172 12.0735 26.3109L10.7021 24.8551C10.6374 24.9161 10.5663 24.9762 10.4578 25.0675L11.7452 26.5981ZM11.56 26.7555C11.6238 26.7002 11.6834 26.65 11.7452 26.598L10.4578 25.0675C10.397 25.1186 10.3265 25.1779 10.2498 25.2444L11.56 26.7555ZM9.98656 26.5084C10.0623 26.5799 10.1397 26.6529 10.2189 26.7276L11.5908 25.2723C11.5121 25.1981 11.4352 25.1255 11.3593 25.0539L9.98656 26.5084ZM9.51051 26.06C9.66593 26.2058 9.82243 26.3535 9.98655 26.5084L11.3593 25.0539C11.1956 24.8994 11.0369 24.7495 10.8788 24.6013L9.51051 26.06ZM7.02054 23.6986C7.8497 24.4843 8.67834 25.2695 9.50592 26.0556L10.8834 24.6056C10.0547 23.8185 9.22521 23.0324 8.3962 22.2468L7.02054 23.6986ZM2.67035 19.566C4.11754 20.9477 5.56984 22.3239 7.02054 23.6986L8.3962 22.2468C6.94504 20.8717 5.49548 19.4981 4.05146 18.1195L2.67035 19.566ZM0.264149 5.59593C-2.07972 10.2402 -1.10025 15.9672 2.67046 19.5661L4.05135 18.1194C0.918806 15.1295 0.101999 10.3562 2.04965 6.49704L0.264149 5.59593ZM13.0296 -0.833128C7.81607 -1.7049 2.63735 0.897365 0.264296 5.59564L2.0495 6.49733C4.02433 2.58749 8.34182 0.410785 12.6997 1.13948L13.0296 -0.833128ZM13.3437 10.5C13.3437 11.8808 12.2244 13 10.8437 13V15C13.329 15 15.3437 12.9853 15.3437 10.5H13.3437ZM10.8437 8.00005C12.2244 8.00005 13.3437 9.11934 13.3437 10.5H15.3437C15.3437 8.01477 13.329 6.00005 10.8437 6.00005V8.00005ZM8.34373 10.5C8.34373 9.11934 9.46302 8.00005 10.8437 8.00005V6.00005C8.35845 6.00005 6.34373 8.01477 6.34373 10.5H8.34373ZM10.8437 13C9.46302 13 8.34373 11.8808 8.34373 10.5H6.34373C6.34373 12.9853 8.35845 15 10.8437 15V13Z" fill="#5466ED" mask="url(#path-1-inside-1_33_586)"/>
</svg>
