<svg width="22" height="26" viewBox="0 0 22 26" fill="none" xmlns="http://www.w3.org/2000/svg">
<mask id="path-1-inside-1_127_199" fill="white">
<path fill-rule="evenodd" clip-rule="evenodd" d="M12.8646 0.153188C17.5413 0.936594 21.2992 4.74705 21.8967 9.44562C22.3665 13.1551 21.2335 16.3654 18.494 18.9587C16.7658 20.5959 15.0193 22.2149 13.2732 23.8336C12.6444 24.4165 12.0156 24.9994 11.3878 25.583C11.299 25.6667 11.2058 25.7451 11.1015 25.8328C11.0402 25.8843 10.9751 25.9391 10.9049 26C10.8259 25.9255 10.7488 25.8527 10.673 25.7812C10.509 25.6264 10.3514 25.4777 10.1947 25.3306C9.36656 24.544 8.53747 23.7584 7.70839 22.9727C6.25746 21.5978 4.80653 20.2229 3.36092 18.8428C-0.0907066 15.5483 -0.988844 10.2982 1.15692 6.0465C3.33086 1.74244 8.07896 -0.647046 12.8646 0.153188ZM10.8437 14.0001C12.7767 14.0001 14.3437 12.4331 14.3437 10.5001C14.3437 8.56706 12.7767 7.00006 10.8437 7.00006C8.91075 7.00006 7.34375 8.56706 7.34375 10.5001C7.34375 12.4331 8.91075 14.0001 10.8437 14.0001Z"/>
</mask>
<path fill-rule="evenodd" clip-rule="evenodd" d="M12.8646 0.153188C17.5413 0.936594 21.2992 4.74705 21.8967 9.44562C22.3665 13.1551 21.2335 16.3654 18.494 18.9587C16.7658 20.5959 15.0193 22.2149 13.2732 23.8336C12.6444 24.4165 12.0156 24.9994 11.3878 25.583C11.299 25.6667 11.2058 25.7451 11.1015 25.8328C11.0402 25.8843 10.9751 25.9391 10.9049 26C10.8259 25.9255 10.7488 25.8527 10.673 25.7812C10.509 25.6264 10.3514 25.4777 10.1947 25.3306C9.36656 24.544 8.53747 23.7584 7.70839 22.9727C6.25746 21.5978 4.80653 20.2229 3.36092 18.8428C-0.0907066 15.5483 -0.988844 10.2982 1.15692 6.0465C3.33086 1.74244 8.07896 -0.647046 12.8646 0.153188ZM10.8437 14.0001C12.7767 14.0001 14.3437 12.4331 14.3437 10.5001C14.3437 8.56706 12.7767 7.00006 10.8437 7.00006C8.91075 7.00006 7.34375 8.56706 7.34375 10.5001C7.34375 12.4331 8.91075 14.0001 10.8437 14.0001Z" fill="#5466ED"/>
<path d="M21.8967 9.44562L22.8888 9.31999L22.8888 9.31947L21.8967 9.44562ZM12.8646 0.153188L13.0299 -0.83307L13.0296 -0.833118L12.8646 0.153188ZM18.494 18.9587L17.8065 18.2325L17.8062 18.2327L18.494 18.9587ZM13.2732 23.8336L13.953 24.567L13.2732 23.8336ZM11.3878 25.583L10.7069 24.8506L10.7021 24.8551L11.3878 25.583ZM11.1015 25.8328L10.4578 25.0675L10.4578 25.0675L11.1015 25.8328ZM10.9049 26L10.219 26.7276L10.8768 27.3478L11.56 26.7555L10.9049 26ZM10.673 25.7812L9.98657 26.5084L9.98658 26.5084L10.673 25.7812ZM10.1947 25.3306L9.50592 26.0557L9.51052 26.06L10.1947 25.3306ZM7.70839 22.9727L7.02056 23.6986H7.02056L7.70839 22.9727ZM3.36092 18.8428L4.05148 18.1195L4.05136 18.1194L3.36092 18.8428ZM1.15692 6.0465L0.264313 5.59565L0.264166 5.59594L1.15692 6.0465ZM22.8888 9.31947C22.234 4.17063 18.1291 0.0211206 13.0299 -0.83307L12.6994 1.13945C16.9536 1.85207 20.3645 5.32347 20.9047 9.57177L22.8888 9.31947ZM19.1814 19.6849C22.1535 16.8715 23.3984 13.3443 22.8888 9.31999L20.9047 9.57125C21.3345 12.9659 20.3134 15.8593 17.8065 18.2325L19.1814 19.6849ZM13.953 24.567C15.6984 22.9489 17.4489 21.3262 19.1817 19.6846L17.8062 18.2327C16.0826 19.8656 14.3401 21.481 12.5933 23.1003L13.953 24.567ZM12.0687 26.3154C12.6959 25.7324 13.3241 25.15 13.953 24.567L12.5933 23.1003C11.9646 23.6831 11.3353 24.2664 10.7069 24.8506L12.0687 26.3154ZM11.7452 26.5981C11.8453 26.5139 11.9606 26.4172 12.0735 26.3109L10.7021 24.8551C10.6374 24.9161 10.5663 24.9763 10.4578 25.0675L11.7452 26.5981ZM11.56 26.7555C11.6238 26.7002 11.6835 26.65 11.7452 26.5981L10.4578 25.0675C10.397 25.1186 10.3265 25.1779 10.2498 25.2444L11.56 26.7555ZM9.98658 26.5084C10.0623 26.5799 10.1397 26.6529 10.219 26.7276L11.5908 25.2723C11.5121 25.1981 11.4352 25.1255 11.3594 25.0539L9.98658 26.5084ZM9.51052 26.06C9.66595 26.2058 9.82244 26.3535 9.98657 26.5084L11.3594 25.0539C11.1956 24.8994 11.0369 24.7496 10.8788 24.6013L9.51052 26.06ZM7.02056 23.6986C7.84972 24.4843 8.67836 25.2695 9.50594 26.0557L10.8834 24.6056C10.0548 23.8185 9.22523 23.0324 8.39622 22.2469L7.02056 23.6986ZM2.67037 19.566C4.11756 20.9477 5.56985 22.3239 7.02056 23.6986L8.39622 22.2469C6.94506 20.8718 5.49549 19.4982 4.05148 18.1195L2.67037 19.566ZM0.264166 5.59594C-2.0797 10.2402 -1.10024 15.9672 2.67048 19.5661L4.05136 18.1194C0.918824 15.1295 0.102016 10.3562 2.04966 6.49705L0.264166 5.59594ZM13.0296 -0.833118C7.81609 -1.70489 2.63737 0.897375 0.264313 5.59565L2.04952 6.49734C4.02435 2.5875 8.34184 0.410795 12.6997 1.13949L13.0296 -0.833118ZM13.3437 10.5001C13.3437 11.8808 12.2245 13.0001 10.8437 13.0001V15.0001C13.329 15.0001 15.3437 12.9853 15.3437 10.5001H13.3437ZM10.8437 8.00006C12.2245 8.00006 13.3437 9.11935 13.3437 10.5001H15.3437C15.3437 8.01478 13.329 6.00006 10.8437 6.00006V8.00006ZM8.34375 10.5001C8.34375 9.11935 9.46304 8.00006 10.8437 8.00006V6.00006C8.35847 6.00006 6.34375 8.01478 6.34375 10.5001H8.34375ZM10.8437 13.0001C9.46304 13.0001 8.34375 11.8808 8.34375 10.5001H6.34375C6.34375 12.9853 8.35847 15.0001 10.8437 15.0001V13.0001Z" fill="white" mask="url(#path-1-inside-1_127_199)"/>
</svg>
