<svg width="52" height="52" viewBox="0 0 52 52" fill="none" xmlns="http://www.w3.org/2000/svg">
<g clip-path="url(#clip0_127_186)">
<path d="M26.0003 6.38112C11.641 6.38112 0 18.1328 0 32.6293C0 40.4897 3.39217 45.6161 3.39217 45.6161L48.5975 45.6183C48.5975 45.6183 51.9995 40.0157 51.9995 32.6287C51.9995 18.1328 40.3584 6.38112 26.0003 6.38112ZM46.6905 42.4206L5.39227 42.4026C5.39227 42.4026 3.19167 38.2351 3.19167 32.5465C3.19167 19.8408 13.4423 9.5401 26.0874 9.5401C38.7321 9.5401 48.9832 19.8403 48.9832 32.5465C48.9838 38.2994 46.6905 42.4206 46.6905 42.4206Z" fill="#5466ED"/>
<path d="M33.3477 13.3513L33.0213 13.3507L26.0861 26.9406L18.9013 13.2347L9.06419 37.9949H6.52197V39.9835H20.4492V37.9949H17.6857L20.4492 30.2565L26.0861 39.9835L31.5023 30.2565L34.2652 37.9949H31.5023V39.9835H45.3183V37.9949H42.9249L33.3477 13.3513Z" fill="#5466ED"/>
</g>
<defs>
<clipPath id="clip0_127_186">
<rect width="51.9995" height="52" fill="white"/>
</clipPath>
</defs>
</svg>
