<svg width="23" height="23" viewBox="0 0 23 23" fill="none" xmlns="http://www.w3.org/2000/svg">
<g clip-path="url(#clip0_127_332)">
<path d="M22.6827 0.32055C22.2613 -0.101357 21.5776 -0.101357 21.1562 0.32055L0.323619 21.1532C-0.0981074 21.5747 -0.0981074 22.2579 0.323619 22.6794C0.534393 22.8904 0.810752 22.9959 1.08693 22.9959C1.36311 22.9959 1.63947 22.8904 1.85006 22.6794L22.6827 1.84682C23.1044 1.42527 23.1044 0.742096 22.6827 0.32055Z" fill="#5466ED"/>
<path d="M5.12756 0.0115051C2.30036 0.0115051 0 2.31204 0 5.13925C0 7.96645 2.30036 10.2668 5.12756 10.2668C7.95495 10.2668 10.2551 7.96627 10.2551 5.13907C10.2551 2.31186 7.95477 0.0115051 5.12756 0.0115051ZM5.12756 8.10769C3.49061 8.10769 2.15895 6.77584 2.15895 5.13907C2.15895 3.50229 3.49079 2.17045 5.12756 2.17045C6.76452 2.17045 8.09618 3.50229 8.09618 5.13907C8.09618 6.77584 6.76452 8.10769 5.12756 8.10769Z" fill="#5466ED"/>
<path d="M17.8722 12.7397C15.045 12.7397 12.7446 15.04 12.7446 17.8672C12.7446 20.6944 15.045 22.9948 17.8722 22.9948C20.6994 22.9948 22.9998 20.6946 22.9998 17.8672C22.9998 15.0398 20.6994 12.7397 17.8722 12.7397ZM17.8722 20.8357C16.2352 20.8357 14.9036 19.5038 14.9036 17.867C14.9036 16.2303 16.2354 14.8984 17.8722 14.8984C19.509 14.8984 20.8408 16.2303 20.8408 17.867C20.8408 19.5038 19.5091 20.8357 17.8722 20.8357Z" fill="#5466ED"/>
</g>
<defs>
<clipPath id="clip0_127_332">
<rect width="23" height="23" fill="white"/>
</clipPath>
</defs>
</svg>
