<svg width="26" height="26" viewBox="0 0 26 26" fill="none" xmlns="http://www.w3.org/2000/svg">
<g clip-path="url(#clip0_127_217)">
<path d="M25.2846 19.0814L21.6562 15.453C20.3604 14.1572 18.1574 14.6755 17.6391 16.3601C17.2503 17.5264 15.9545 18.1743 14.7882 17.9151C12.1965 17.2672 8.69771 13.898 8.04979 11.1767C7.66103 10.0104 8.43854 8.71453 9.60481 8.32583C11.2894 7.80749 11.8078 5.60455 10.5119 4.3087L6.88352 0.680321C5.84684 -0.226774 4.29183 -0.226774 3.38473 0.680321L0.922618 3.14243C-1.5395 5.73413 1.18179 12.6021 7.27228 18.6926C13.3628 24.7831 20.2308 27.634 22.8225 25.0423L25.2846 22.5802C26.1917 21.5435 26.1917 19.9885 25.2846 19.0814Z" fill="#5466ED"/>
</g>
<defs>
<clipPath id="clip0_127_217">
<rect width="26" height="26" fill="white" transform="translate(-0.0078125)"/>
</clipPath>
</defs>
</svg>
