<svg width="27" height="28" viewBox="0 0 27 28" fill="none" xmlns="http://www.w3.org/2000/svg">
<path d="M23.1376 1.8824e-05C22.1543 -0.00334635 21.2237 0.444642 20.6133 1.21569C20.003 1.98652 19.7802 2.99502 20.0091 3.95136C18.6815 3.1332 16.9812 3.24531 15.7725 4.23067L12.6124 6.79808L7.46643 4.34698L7.69988 3.88111C7.81325 3.65396 7.72113 3.37802 7.49398 3.26445C7.26683 3.15108 6.99089 3.2432 6.87731 3.47035L6.63523 3.95136L5.18652 3.26213C5.03698 3.17716 4.85253 3.18263 4.70846 3.27664C4.56439 3.37066 4.48488 3.53702 4.50234 3.70823C4.5198 3.87922 4.63127 4.02624 4.79154 4.08912L6.22405 4.77141L5.9561 5.30668C5.84273 5.53383 5.93485 5.80999 6.162 5.92335C6.38915 6.03672 6.6651 5.94459 6.77867 5.71744L7.05419 5.16619L11.822 7.43873L11.0194 8.09073C10.7395 8.31935 10.5027 8.59635 10.3205 8.90847C9.67797 10.2623 10.1243 11.8826 11.3694 12.7164L15.7344 15.5118L11.2056 17.5256C10.4518 17.8501 9.99157 18.6214 10.0637 19.4387L4.30948 15.9299C4.16919 15.8424 3.99294 15.8369 3.84761 15.9156C3.70227 15.9943 3.61036 16.1448 3.60679 16.3099C3.60342 16.4753 3.68881 16.6294 3.83078 16.7142L20.7075 27.0061C22.0509 27.8323 23.7633 27.7503 25.0215 26.7994C25.2244 26.6471 25.2654 26.359 25.1132 26.156C24.9611 25.9531 24.673 25.9118 24.47 26.0641C23.5118 26.7872 22.2086 26.8495 21.1858 26.2212L12.5361 20.9459C12.5659 20.9343 12.5981 20.9293 12.628 20.916L19.0908 18.042C20.3672 17.4667 20.9549 15.9808 20.4175 14.6879C20.2181 14.209 19.8763 13.8027 19.4384 13.5242L15.987 11.0891L17.1817 10.4918L18.7976 11.6155L20.2219 12.6076C20.9187 13.1076 21.8639 13.079 22.5294 12.5378L24.0914 13.2807C24.2397 13.3513 24.4143 13.3375 24.5495 13.2443C24.6847 13.1513 24.76 12.9932 24.747 12.8295C24.7342 12.6657 24.6347 12.5214 24.4866 12.4509L23.0562 11.7699C23.1654 11.4816 23.199 11.1703 23.1542 10.8653C23.0772 10.3673 22.8 9.92244 22.3868 9.63387L21.1618 8.78354L21.2998 8.75451C21.7957 8.64725 22.1108 8.15845 22.0035 7.66251L21.728 6.39195C21.7032 6.27711 21.6645 6.16733 21.6296 6.05606C22.8116 6.68451 24.2591 6.51499 25.264 5.63079C26.2689 4.74638 26.621 3.33217 26.148 2.0799C25.6752 0.827851 24.4761 -0.000612148 23.1376 1.8824e-05ZM21.8595 10.3875C22.0666 10.5315 22.2055 10.7547 22.2433 11.0043C22.281 11.2538 22.2145 11.5081 22.0593 11.707C21.7274 12.09 21.157 12.154 20.7483 11.854L19.6328 11.0775L18.9593 10.6089L17.4808 9.58066H17.4784L17.0572 9.28747C16.866 9.15476 16.7322 8.95411 16.6832 8.72654L16.5072 7.91006C16.4552 7.67177 16.5002 7.42253 16.6323 7.21747C16.7642 7.0124 16.9722 6.86812 17.2105 6.81659L18.1429 6.61489C18.3908 6.56126 18.5486 6.31687 18.4949 6.06889C18.4415 5.82071 18.1969 5.66297 17.9489 5.7166L17.0168 5.9183C16.0253 6.13367 15.3952 7.11062 15.608 8.10251L15.7839 8.9194C15.8661 9.29041 16.0615 9.62651 16.3431 9.88163L15.4009 10.3534C15.3468 10.3805 15.2987 10.4177 15.2589 10.4632C15.0833 10.6661 15.005 10.9354 15.0448 11.2008C15.0812 11.4578 15.2265 11.6868 15.4436 11.8292L18.929 14.2892C19.2161 14.4688 19.4408 14.7327 19.5722 15.0451C19.9171 15.8761 19.5394 16.8309 18.7189 17.2007L12.2544 20.0783C12.0237 20.1807 11.7612 20.1839 11.5282 20.0869C11.2951 19.99 11.1124 19.8015 11.0226 19.5655C10.8667 19.0822 11.1092 18.5604 11.5791 18.3678L16.108 16.3512C16.4165 16.2138 16.6247 15.9179 16.6502 15.581C16.6756 15.244 16.5141 14.9203 16.2295 14.738L11.8647 11.9428C11.0249 11.3701 10.7138 10.2791 11.1254 9.34951C11.2504 9.14151 11.4106 8.95684 11.5993 8.80415L16.352 4.94472C17.4469 4.05 19.0422 4.13203 20.0395 5.13443C20.4381 5.53236 20.713 6.03714 20.8312 6.58776L21.1067 7.85811L20.4547 7.99609C20.1861 8.0535 19.9771 8.2653 19.9232 8.53472C19.8694 8.80436 19.9807 9.08009 20.2068 9.23657L21.8595 10.3875ZM23.1376 5.51343C21.8689 5.51343 20.8402 4.48495 20.8402 3.21628C20.8402 1.9474 21.8689 0.918921 23.1376 0.918921C24.4063 0.918921 25.435 1.9474 25.435 3.21628C25.4333 4.48432 24.4056 5.51196 23.1376 5.51343Z" fill="#5466ED"/>
<path d="M4.98905 12.8649C5.19412 12.8651 5.37437 12.7294 5.43115 12.5324C5.48773 12.3353 5.40697 12.1245 5.23303 12.0158L1.55742 9.71844C1.34163 9.58404 1.05769 9.64987 0.923296 9.86546C0.788689 10.0812 0.85452 10.3652 1.07031 10.4996L4.74592 12.7969C4.81911 12.8417 4.90324 12.8653 4.98905 12.8649Z" fill="#5466ED"/>
<path d="M4.28613 10.4977L7.96174 12.795C8.17732 12.9294 8.46125 12.8636 8.59565 12.648C8.73026 12.4322 8.66443 12.1485 8.44864 12.0139L4.77303 9.71675C4.55745 9.58215 4.27351 9.64798 4.1389 9.86377C4.00451 10.0794 4.07034 10.3633 4.28613 10.4977Z" fill="#5466ED"/>
</svg>
