<svg width="28" height="19" viewBox="0 0 28 19" fill="none" xmlns="http://www.w3.org/2000/svg">
<path d="M26.548 14.3759C25.9998 14.4487 25.4422 14.3972 24.9166 14.225C24.471 14.0754 24.0649 13.8272 23.7284 13.4989C23.3994 13.1579 22.9728 12.9273 22.5073 12.8388C22.4712 12.8365 22.4349 12.8365 22.3988 12.8388L21.965 12.1834C22.2128 12.2383 22.4657 12.2668 22.7194 12.2683C23.3911 12.2813 24.0523 12.1009 24.6242 11.7487C25.1962 11.3964 25.6549 10.8872 25.9455 10.2816C26.2362 9.67596 26.3466 8.99956 26.2636 8.33296C26.1806 7.66636 25.9078 7.03767 25.4775 6.52182C25.0472 6.00596 24.4777 5.62469 23.8368 5.42345C23.1959 5.2222 22.5107 5.20945 21.8627 5.38674C21.2148 5.56402 20.6315 5.92385 20.1823 6.42335C19.7332 6.92285 19.4371 7.54095 19.3294 8.20401L16.887 4.50749C16.866 4.47526 16.8547 4.43757 16.8547 4.39904C16.8547 4.36052 16.866 4.32283 16.887 4.2906C16.9013 4.25995 16.9239 4.23396 16.9522 4.2156C16.9806 4.19725 17.0136 4.18729 17.0474 4.18687H21.1399C21.6951 4.18687 22.2276 3.96631 22.6202 3.57372C23.0128 3.18112 23.2334 2.64865 23.2334 2.09344C23.2334 1.53822 23.0128 1.00575 22.6202 0.613153C22.2276 0.220558 21.6951 0 21.1399 0H13.0255C12.7344 0.000371688 12.4477 0.0718714 12.1905 0.208279C11.9333 0.344687 11.7134 0.541872 11.5497 0.782681C11.381 1.03186 11.276 1.31865 11.2439 1.61788C11.2118 1.91712 11.2537 2.21965 11.3658 2.49892L13.629 8.18515C13.7035 8.36612 13.7157 8.56674 13.6636 8.75539C13.6116 8.94405 13.4982 9.11002 13.3414 9.22715L8.32942 12.9991C8.18675 12.9851 8.04304 12.9851 7.90036 12.9991C7.55062 13.0432 7.21623 13.1692 6.92437 13.3669C6.63255 13.5482 6.32668 13.7059 6.00967 13.8384C5.24096 14.1522 4.42815 14.3446 3.60033 14.4089C3.47598 14.4197 3.36098 14.4793 3.28055 14.5748C3.20012 14.6702 3.16082 14.7937 3.17127 14.9181C3.17603 14.9801 3.19301 15.0405 3.22121 15.0959C3.24942 15.1513 3.28831 15.2006 3.33564 15.2409C3.38296 15.2812 3.4378 15.3118 3.49698 15.3308C3.55617 15.3499 3.61853 15.357 3.68049 15.3519C4.60373 15.2761 5.51001 15.0599 6.36801 14.7106C6.72517 14.5667 7.07043 14.3949 7.40058 14.1967C7.58152 14.0656 7.7921 13.9814 8.01352 13.9515C8.5746 13.8808 8.91879 14.1496 9.395 14.5173C9.90629 14.979 10.5398 15.2834 11.2197 15.3943C11.6196 15.423 12.021 15.3664 12.3974 15.2282C12.7737 15.09 13.1164 14.8734 13.4027 14.5928C13.863 14.1592 14.4597 13.8992 15.0907 13.8572C15.7876 13.8662 16.4577 14.1275 16.9766 14.5928C17.5301 15.072 18.2261 15.3553 18.9569 15.399C19.0959 15.3992 19.2346 15.3882 19.3718 15.366C20.0946 15.2292 20.7552 14.8659 21.2578 14.3287C21.701 13.9232 21.9509 13.7158 22.3517 13.7771C22.6378 13.8458 22.8962 14.0005 23.0919 14.2203C23.5247 14.6294 24.0411 14.9399 24.6054 15.1303C25.2632 15.3451 25.9605 15.4111 26.647 15.3236C26.7108 15.3184 26.7728 15.3003 26.8294 15.2703C26.886 15.2404 26.9358 15.1992 26.976 15.1494C27.0161 15.0995 27.0457 15.042 27.0629 14.9804C27.0801 14.9187 27.0846 14.8542 27.076 14.7908C27.069 14.7287 27.0498 14.6686 27.0194 14.614C26.9889 14.5594 26.948 14.5115 26.8988 14.4728C26.8497 14.4342 26.7934 14.4058 26.7331 14.3891C26.6729 14.3725 26.61 14.368 26.548 14.3759ZM22.7194 6.20015C23.2284 6.18703 23.7297 6.32595 24.1593 6.59917C24.589 6.87239 24.9274 7.2675 25.1313 7.73401C25.3352 8.20052 25.3955 8.71724 25.3042 9.21815C25.213 9.71905 24.9746 10.1814 24.6193 10.5461C24.264 10.9108 23.808 11.1612 23.3097 11.2655C22.8113 11.3697 22.2932 11.323 21.8216 11.1314C21.3499 10.9397 20.9461 10.6117 20.6617 10.1894C20.3774 9.76703 20.2254 9.26951 20.2252 8.76037C20.2209 8.42848 20.2819 8.09899 20.4049 7.7907C20.5279 7.48242 20.7104 7.20138 20.942 6.96363C21.1736 6.72589 21.4498 6.5361 21.7548 6.4051C22.0598 6.2741 22.3876 6.20446 22.7194 6.20015ZM20.6354 13.6498C20.2736 14.0559 19.791 14.3352 19.2587 14.4466C18.5609 14.555 18.1129 14.2391 17.5471 13.8384C16.8596 13.2481 15.9826 12.9251 15.0765 12.9284C14.2459 12.9791 13.4575 13.3117 12.8416 13.8714C12.3418 14.258 11.9788 14.5409 11.3328 14.4607C10.8223 14.3686 10.3492 14.1313 9.97022 13.7771C9.79229 13.6333 9.60656 13.4995 9.41386 13.3763L13.9072 10.0098C14.2286 9.76749 14.4613 9.42617 14.5695 9.03848C14.6777 8.65079 14.6554 8.23827 14.506 7.86453L12.2428 2.1783C12.1868 2.0428 12.1656 1.89541 12.1813 1.74962C12.1969 1.60383 12.2489 1.46429 12.3324 1.34376C12.4008 1.21862 12.5007 1.11358 12.6224 1.03912C12.744 0.964667 12.883 0.923392 13.0255 0.919414H21.1305C21.4356 0.919414 21.7282 1.04062 21.944 1.25637C22.1597 1.47212 22.2809 1.76474 22.2809 2.06986C22.2809 2.37498 22.1597 2.6676 21.944 2.88335C21.7282 3.0991 21.4356 3.22031 21.1305 3.22031H17.0379C16.8335 3.22093 16.633 3.27694 16.4578 3.38237C16.2827 3.48781 16.1393 3.63873 16.0431 3.81911C15.9453 4.00324 15.8989 4.21034 15.9089 4.4186C15.9188 4.62686 15.9847 4.82859 16.0997 5.00256L21.4181 13.0321C21.1326 13.2047 20.8697 13.4122 20.6354 13.6498Z" fill="#5466ED"/>
<path d="M24.5159 17.8131C23.9676 17.8814 23.411 17.8299 22.8845 17.6622C22.441 17.5148 22.0354 17.2718 21.6963 16.9502C21.3697 16.6026 20.9429 16.3653 20.4751 16.2713C19.6123 16.1393 19.0607 16.6296 18.5892 17.0587C18.2247 17.4648 17.7412 17.7453 17.2077 17.8602C16.5099 17.964 16.0667 17.6481 15.5009 17.252C14.8121 16.6633 13.9363 16.3391 13.0302 16.3373C12.1991 16.3857 11.41 16.7187 10.7954 17.2803C10.2956 17.6669 9.92782 17.9451 9.28658 17.8649C8.77608 17.7728 8.30297 17.5355 7.92396 17.1813C7.65448 16.9133 7.33077 16.706 6.97458 16.5735C6.61838 16.4409 6.23795 16.3861 5.85882 16.4127C5.50908 16.4568 5.17468 16.5828 4.88282 16.7805C4.59209 16.9637 4.28605 17.1215 3.96812 17.252C3.20161 17.56 2.39208 17.7477 1.56822 17.8084C1.44317 17.8184 1.32722 17.8776 1.24587 17.9731C1.16452 18.0686 1.12444 18.1925 1.13444 18.3176C1.14445 18.4426 1.20372 18.5586 1.29921 18.6399C1.39471 18.7213 1.51861 18.7614 1.64366 18.7513C2.5687 18.6773 3.47679 18.461 4.33589 18.1101C4.69949 17.9671 5.05108 17.7952 5.38732 17.5962C5.56661 17.4653 5.77562 17.3811 5.99555 17.351C6.56134 17.2803 6.90554 17.549 7.38174 17.9168C7.8912 18.3812 8.52557 18.6861 9.20643 18.7938C9.60711 18.8304 10.011 18.7799 10.3903 18.6456C10.7695 18.5113 11.1152 18.2964 11.4036 18.0158C11.8594 17.5869 12.4485 17.3272 13.0727 17.2803C13.7705 17.2893 14.4411 17.5524 14.9587 18.0205C15.5158 18.5042 16.2167 18.7909 16.9531 18.8362C17.0921 18.8364 17.2308 18.8254 17.368 18.8032C18.0903 18.668 18.7509 18.3063 19.254 17.7706C19.6972 17.3652 19.9424 17.153 20.3478 17.219C20.6341 17.2847 20.8929 17.438 21.0881 17.6575C21.5205 18.0683 22.0368 18.3804 22.6016 18.5722C23.2586 18.7833 23.9539 18.8477 24.6384 18.7608C24.7004 18.7537 24.7603 18.7344 24.8148 18.7041C24.8692 18.6739 24.9172 18.6332 24.956 18.5843C24.9947 18.5355 25.0235 18.4796 25.0406 18.4196C25.0577 18.3597 25.0628 18.297 25.0557 18.2351C25.0486 18.1731 25.0294 18.1132 24.9991 18.0588C24.9688 18.0043 24.9281 17.9563 24.8793 17.9175C24.8305 17.8788 24.7745 17.85 24.7146 17.8329C24.6546 17.8158 24.5919 17.8107 24.53 17.8178L24.5159 17.8131Z" fill="#5466ED"/>
<path d="M4.83563 4.3236H8.55101C8.67606 4.3236 8.79598 4.27393 8.8844 4.18551C8.97283 4.09708 9.0225 3.97716 9.0225 3.85211C9.0225 3.72706 8.97283 3.60714 8.8844 3.51871C8.79598 3.43029 8.67606 3.38062 8.55101 3.38062H4.83563C4.71058 3.38062 4.59066 3.43029 4.50223 3.51871C4.41381 3.60714 4.36414 3.72706 4.36414 3.85211C4.36414 3.97716 4.41381 4.09708 4.50223 4.18551C4.59066 4.27393 4.71058 4.3236 4.83563 4.3236Z" fill="#5466ED"/>
<path d="M2.99682 6.17657H6.69334C6.81839 6.17657 6.93831 6.1269 7.02674 6.03847C7.11516 5.95005 7.16484 5.83012 7.16484 5.70508C7.16484 5.58003 7.11516 5.4601 7.02674 5.37168C6.93831 5.28326 6.81839 5.23358 6.69334 5.23358H2.99682C2.87178 5.23358 2.75185 5.28326 2.66343 5.37168C2.575 5.4601 2.52533 5.58003 2.52533 5.70508C2.52533 5.83012 2.575 5.95005 2.66343 6.03847C2.75185 6.1269 2.87178 6.17657 2.99682 6.17657Z" fill="#5466ED"/>
<path d="M8.07953 5.70508C8.07953 5.83012 8.1292 5.95005 8.21763 6.03847C8.30605 6.1269 8.42598 6.17657 8.55102 6.17657H10.0645C10.1896 6.17657 10.3095 6.1269 10.3979 6.03847C10.4863 5.95005 10.536 5.83012 10.536 5.70508C10.536 5.58003 10.4863 5.4601 10.3979 5.37168C10.3095 5.28326 10.1896 5.23358 10.0645 5.23358H8.55102C8.42598 5.23358 8.30605 5.28326 8.21763 5.37168C8.1292 5.4601 8.07953 5.58003 8.07953 5.70508Z" fill="#5466ED"/>
<path d="M7.67877 8.02484C7.80382 8.02484 7.92375 7.97516 8.01217 7.88674C8.10059 7.79832 8.15027 7.67839 8.15027 7.55334C8.15027 7.42829 8.10059 7.30837 8.01217 7.21995C7.92375 7.13152 7.80382 7.08185 7.67877 7.08185H1.14386C1.01881 7.08185 0.898883 7.13152 0.810461 7.21995C0.722039 7.30837 0.672363 7.42829 0.672363 7.55334C0.672363 7.67839 0.722039 7.79832 0.810461 7.88674C0.898883 7.97516 1.01881 8.02484 1.14386 8.02484H7.67877Z" fill="#5466ED"/>
</svg>
