<svg width="16" height="39" viewBox="0 0 16 39" fill="none" xmlns="http://www.w3.org/2000/svg">
<path d="M8.42552 36.0516C5.91945 36.0516 3.88135 34.0135 3.88135 31.5074C3.88135 29.0014 5.91945 26.9633 8.42552 26.9633C10.9316 26.9633 12.9697 29.0014 12.9697 31.5074C12.9697 34.0135 10.9315 36.0516 8.42552 36.0516ZM8.42552 28.1886C6.59591 28.1886 5.10662 29.6778 5.10662 31.5075C5.10662 33.3371 6.59582 34.8264 8.42552 34.8264C10.2552 34.8264 11.7444 33.3372 11.7444 31.5075C11.7444 29.6778 10.2551 28.1886 8.42552 28.1886Z" fill="#5466ED"/>
<path d="M8.42567 39C4.29394 39 0.933105 35.6392 0.933105 31.5074C0.933105 28.9789 2.16886 26.6768 4.25793 25.2806V4.16775C4.25793 1.87018 6.12811 0 8.42567 0C10.7232 0 12.5934 1.87018 12.5934 4.16775V25.2807C14.681 26.6769 15.9182 28.979 15.9182 31.5075C15.9182 35.6392 12.5574 39 8.42567 39ZM8.42567 1.22372C6.80301 1.22372 5.4832 2.54344 5.4832 4.1662V25.6166C5.4832 25.831 5.3707 26.029 5.18773 26.1399C3.29057 27.2873 2.15829 29.2938 2.15829 31.5059C2.15829 34.9613 4.97021 37.7732 8.42558 37.7732C11.881 37.7732 14.6929 34.9613 14.6929 31.5059C14.6929 29.2923 13.5606 27.2857 11.6634 26.1399C11.4805 26.029 11.368 25.831 11.368 25.6166V4.16775C11.3696 2.54499 10.0483 1.22372 8.42567 1.22372Z" fill="#5466ED"/>
<path d="M8.42587 28.1886C8.08692 28.1886 7.81396 27.9142 7.81396 27.5767V6.7427C7.81396 6.40375 8.08837 6.1308 8.42587 6.1308C8.76328 6.1308 9.03778 6.40521 9.03778 6.7427V27.5767C9.03924 27.9141 8.76483 28.1886 8.42587 28.1886Z" fill="#5466ED"/>
<path d="M11.9773 23.2111H10.4342C10.0952 23.2111 9.82227 22.9366 9.82227 22.5992C9.82227 22.2617 10.0967 21.9872 10.4342 21.9872H11.9773C12.3163 21.9872 12.5892 22.2617 12.5892 22.5992C12.5892 22.9366 12.3148 23.2111 11.9773 23.2111Z" fill="#5466ED"/>
<path d="M11.9773 19.2803H10.4342C10.0952 19.2803 9.82227 19.0059 9.82227 18.6684C9.82227 18.3295 10.0967 18.0565 10.4342 18.0565H11.9773C12.3163 18.0565 12.5892 18.3309 12.5892 18.6684C12.5892 19.0058 12.3148 19.2803 11.9773 19.2803Z" fill="#5466ED"/>
<path d="M11.9773 15.348H10.4342C10.0952 15.348 9.82227 15.0736 9.82227 14.7361C9.82227 14.3987 10.0967 14.1242 10.4342 14.1242H11.9773C12.3163 14.1242 12.5892 14.3986 12.5892 14.7361C12.5892 15.0735 12.3148 15.348 11.9773 15.348Z" fill="#5466ED"/>
<path d="M11.9773 11.4174H10.4342C10.0952 11.4174 9.82227 11.1429 9.82227 10.8054C9.82227 10.468 10.0967 10.1935 10.4342 10.1935H11.9773C12.3163 10.1935 12.5892 10.468 12.5892 10.8054C12.5892 11.1429 12.3148 11.4174 11.9773 11.4174Z" fill="#5466ED"/>
</svg>
